<svg width="1286" height="1314" viewBox="0 0 1286 1314" fill="none" xmlns="http://www.w3.org/2000/svg">
<g filter="url(#filter0_d_110_130)">
<path d="M105.434 781.267C105.434 1066.82 336.918 1298.3 622.468 1298.3C908.018 1298.3 1139.5 1066.82 1139.5 781.267C1139.5 495.717 908.018 264.236 622.468 264.236C336.918 264.236 105.434 495.717 105.434 781.267" fill="white"/>
</g>
<path d="M105.434 781.267C105.434 1066.82 336.918 1298.3 622.468 1298.3C908.018 1298.3 1139.5 1066.82 1139.5 781.267C1139.5 495.717 908.018 264.237 622.468 264.237C336.918 264.237 105.434 495.717 105.434 781.267" fill="url(#paint0_radial_110_130)"/>
<path d="M464.196 742.172C463.363 738.711 479.519 736.243 484.71 735.995C489.898 735.748 496.819 736.984 498.797 739.084C500.774 741.183 503.738 745.633 506.951 747.61C510.165 749.588 508.434 751.068 513.378 752.057C518.319 753.045 520.049 751.315 519.555 754.529C519.061 757.742 513.378 759.72 510.906 759.473C508.434 759.225 502.996 757.989 500.527 756.012C498.055 754.034 487.923 746.869 484.71 746.374C481.496 745.88 464.616 743.906 464.196 742.172" fill="white" fill-opacity="0.5"/>
<path d="M564.782 769.604C564.935 771.345 559.097 772.076 555.883 772.571C552.673 773.065 541.552 774.548 540.069 775.784C538.586 777.02 532.9 780.23 530.675 779.489C528.454 778.747 525.24 775.645 524.993 774.602C524.746 773.559 525.735 767.132 526.971 765.155C528.207 763.18 529.934 760.956 532.653 761.203C535.372 761.45 538.586 762.645 540.563 761.182C542.541 759.72 544.515 758.524 546.493 759.493C548.47 760.461 564.288 763.919 564.782 769.604" fill="white" fill-opacity="0.5"/>
<path fill-rule="evenodd" clip-rule="evenodd" d="M332.106 353.347C276.933 391.945 249.882 419.002 210.554 468.746C210.662 469.442 210.784 470.133 210.921 470.817C213.792 485.189 210.345 502.432 208.178 508.178C206.007 513.925 204.023 520.247 208.178 522.763C216.034 527.528 225.719 537.06 229.078 540.958C232.434 544.855 234.168 570.849 230.917 583.192C227.669 595.538 228.319 607.234 236.118 615.033C241.451 620.367 244.049 625.093 246.198 629.003C247.189 630.808 248.086 632.438 249.111 633.875C250.788 636.22 251.6 641.503 252.616 648.12C253.571 654.335 254.707 661.726 256.91 668.963C261.458 683.907 269.903 691.706 273.804 694.303C275.939 695.727 279.827 701.438 283.655 707.06C286.817 711.705 289.938 716.289 291.995 718.346C296.547 722.894 297.193 715.745 295.246 711.197C293.296 706.65 289.398 698.204 284.2 692.356C279.002 686.508 277.052 670.914 278.352 665.066C279.25 661.028 282.934 662.874 287.268 665.046C289.211 666.02 291.284 667.059 293.296 667.663C297.678 668.979 302.356 682.114 306.133 692.72C307.957 697.841 309.571 702.373 310.84 704.699C312.454 707.659 314.18 714.519 316.201 722.556C319.062 733.928 322.515 747.657 327.084 756.032C334.883 770.326 340.081 774.227 351.127 779.425C362.173 784.623 374.516 788.52 384.265 791.121C388.782 792.325 392.601 795.203 396.24 797.946C400.452 801.121 404.423 804.114 408.955 804.114C417.404 804.114 425.199 804.114 433.648 816.461C442.093 828.807 451.189 840.503 459.638 841.804C468.083 843.101 477.832 847.002 483.681 853.497C489.529 859.995 496.674 876.239 497.324 881.437C497.613 883.752 496.614 886.068 495.416 888.843C493.925 892.299 492.126 896.467 492.126 902.232C492.126 912.628 486.928 930.173 482.38 939.918C481.093 942.677 479.493 944.915 477.802 947.281C473.518 953.273 468.648 960.085 466.786 978.255C464.954 996.106 470.863 1001.7 481.103 1011.41C485.398 1015.47 490.456 1020.27 496.024 1026.99C509.231 1042.93 527.225 1048.33 539.941 1052.15C545.368 1053.78 549.834 1055.13 552.555 1056.87C559.286 1061.2 558.545 1068.02 557.705 1075.75C557.41 1078.47 557.102 1081.3 557.102 1084.17C557.102 1095.21 556.452 1114.71 555.802 1129C555.527 1135.08 554.899 1138.69 554.317 1142.03C553.531 1146.55 552.831 1150.58 553.205 1159.54C553.855 1175.13 553.205 1195.93 551.254 1206.97C550.741 1209.88 550.182 1212.8 549.626 1215.7C548.072 1223.8 546.535 1231.8 546.056 1239.46C545.558 1247.43 546.205 1250.05 547.119 1253.76C547.398 1254.9 547.702 1256.13 548.007 1257.66C549.296 1264.1 550.585 1269.26 552.505 1276.95L552.555 1277.15C554.184 1283.66 552.637 1288.82 550.569 1293.37C551.321 1293.46 552.052 1293.56 552.765 1293.65C563.678 1295.06 570.355 1295.93 581.887 1296.71C583.816 1295.2 585.374 1294.18 586.343 1294.04C590.891 1293.39 592.191 1286.9 592.191 1281.05C592.191 1275.74 597.01 1272.04 602.273 1268C602.808 1267.59 603.348 1267.17 603.887 1266.75C609.736 1262.2 608.435 1253.11 603.887 1246.61C599.34 1240.11 602.587 1225.82 605.835 1220.62C607.611 1217.78 611.132 1216.88 616.187 1215.59C620.384 1214.51 625.638 1213.17 631.828 1210.22C645.471 1203.72 648.072 1189.43 649.372 1182.28C650.669 1175.13 659.118 1168.64 668.214 1167.34C677.309 1166.04 686.408 1159.54 690.306 1154.99C694.204 1150.44 693.553 1145.25 689.656 1136.8C685.758 1128.35 689.656 1112.76 693.553 1107.56C697.454 1102.36 703.303 1097.81 717.596 1094.56C731.893 1091.31 747.487 1078.97 753.335 1072.47C759.183 1065.97 765.678 1056.23 757.233 1033.49C748.784 1010.74 748.784 1006.85 757.233 997.096C765.678 987.35 768.929 977.605 770.876 959.41C772.541 943.882 755.267 938.293 742.497 934.16C740.306 933.452 738.248 932.786 736.441 932.12C731.423 930.271 725.225 928.423 718.587 926.444C708.894 923.553 698.264 920.383 689.006 916.526C679.61 912.611 675.169 902.799 671.274 894.196C668.705 888.52 666.374 883.37 663.016 880.787C657.992 876.924 649.059 876.277 641.141 875.704C635.747 875.314 630.823 874.958 627.927 873.642C623.041 871.419 619.672 864.945 616.576 858.995C615.144 856.244 613.771 853.604 612.333 851.55C609.524 847.537 602.504 845.506 593.872 843.009C588.525 841.463 582.561 839.738 576.597 837.253C567.166 833.324 558.213 835.573 551.027 837.821C550.319 838.043 549.628 838.264 548.955 838.48C545.164 839.695 541.959 840.722 539.558 840.503C535.79 840.161 535.274 836.385 534.77 832.701C534.318 829.399 533.877 826.171 531.112 825.556C527.907 824.845 523.336 830.575 519.003 836.005C515.43 840.483 512.019 844.757 509.67 845.051C507.502 845.322 503.755 844.464 499.188 843.417C498.276 843.208 497.333 842.992 496.362 842.776C490.528 841.479 483.731 840.178 477.284 840.503C466.345 841.055 466.879 827.578 467.292 817.13C467.366 815.262 467.436 813.49 467.436 811.913C467.436 811.402 467.438 810.913 467.44 810.445V810.436C467.469 801.382 467.473 800.024 455.74 796.319C454.968 796.075 454.213 795.839 453.477 795.608C442.451 792.157 435.636 790.023 436.245 783.322C436.638 779.001 440.118 771.118 442.952 764.698C444.806 760.498 446.384 756.925 446.641 755.382C447.291 751.484 444.044 744.336 439.496 744.336C434.945 744.336 422.602 748.884 424.549 756.682C426.499 764.481 416.103 772.926 410.255 770.976C404.407 769.029 390.114 761.88 388.163 757.332C387.463 755.7 387.684 754.988 387.954 754.116C388.437 752.557 389.08 750.486 384.916 741.738C378.417 728.092 382.965 713.148 385.562 705.999C387.233 701.407 393.195 697.352 398.623 693.661C401.644 691.607 404.499 689.665 406.358 687.805C409.71 684.453 413.062 685.155 417.46 686.077C419.881 686.584 422.619 687.158 425.849 687.158C431.774 687.158 431.358 684.677 430.887 681.868C430.635 680.365 430.367 678.769 431.047 677.409C432.998 673.511 440.146 673.511 453.139 674.161C462.277 674.619 463.062 680.536 463.852 686.493C464.186 689.008 464.521 691.531 465.486 693.653C466.507 695.902 467.272 698.343 468.002 700.674C469.592 705.754 471.019 710.308 474.581 711.197C477.019 711.807 478.6 713.131 479.993 714.299C481.57 715.62 482.908 716.741 484.977 716.395C488.878 715.745 491.476 704.699 491.476 698.851C491.476 696.39 490.323 692.314 488.989 687.596C487.155 681.109 484.977 673.408 484.977 667.013C484.977 659.941 493.765 653.403 503.67 646.033C509.237 641.891 515.156 637.487 520.066 632.578C529.961 622.681 529.946 611.417 529.934 603C529.93 599.811 529.926 597.031 530.462 594.888C531.569 590.464 537.28 590.434 543.081 590.404C547.502 590.381 551.976 590.358 554.505 588.39C557.84 585.797 555.47 581.936 553.058 578.007C551.24 575.045 549.398 572.045 549.957 569.518C551.254 563.643 574.647 553.954 582.445 553.304C586.038 553.005 583.559 555.465 580.414 558.587C576.735 562.239 572.144 566.797 575.297 568.898C579.038 571.391 586.765 565.91 594.23 560.615C598.435 557.632 602.557 554.709 605.835 553.304C614.934 549.407 620.782 539.658 616.41 535.76C614.009 533.616 605.154 535.797 597.128 537.975C596.733 538.082 596.339 538.19 595.948 538.297C595.566 538.401 595.188 538.505 594.813 538.609C589.198 540.151 584.381 541.474 583.096 540.958C579.845 539.657 583.742 534.46 586.343 533.596C588.94 532.733 586.993 524.714 578.544 524.714C570.099 524.714 569.449 520.816 572.049 516.268C574.647 511.717 599.34 511.07 606.485 511.07C613.633 511.07 618.831 517.565 619.481 525.364C620.132 533.159 633.125 535.11 640.923 532.512C648.722 529.912 649.372 525.364 640.923 522.763C632.478 520.166 631.178 513.668 633.125 509.12C635.075 504.572 634.425 499.374 633.125 492.425C632.704 490.174 632.557 487.313 632.394 484.165C632.055 477.6 631.651 469.785 628.577 463.635C626.068 458.617 618.813 455.774 612.375 453.251C607.144 451.201 602.453 449.362 601.287 446.741C600.385 444.709 600.109 441.267 599.809 437.521C599.246 430.481 598.597 422.367 593.542 420.517C590.218 419.303 588.36 422.871 586.277 426.871C586.179 427.059 586.08 427.248 585.981 427.438C585.871 427.648 585.761 427.858 585.649 428.069C583.343 432.417 580.583 436.765 575.266 435.701C564.515 433.551 556.987 418.499 553.763 410.971C550.536 403.447 525.806 406.671 517.205 410.971C508.604 415.272 508.604 424.95 516.131 434.625C523.656 444.303 529.033 451.827 516.131 461.505C504.503 470.225 505.974 476.325 507.952 484.53C508.169 485.429 508.391 486.353 508.604 487.309C510.754 496.983 497.852 492.683 491.401 476.557C486.624 464.612 478.899 464.463 471.281 464.316C468.613 464.264 465.958 464.213 463.447 463.655C457.844 462.41 453.682 458.639 449.5 454.851C446.462 452.098 443.414 449.336 439.794 447.526C438.318 446.788 436.841 446.145 435.409 445.521C428.494 442.509 422.592 439.938 422.592 429.251C422.592 419.383 430.139 416.432 440.905 412.224C444.215 410.93 447.83 409.517 451.622 407.747C467.748 400.22 469.898 376.566 466.674 372.266C464.517 369.391 461.88 371.802 459.083 374.359C457.697 375.627 456.272 376.931 454.846 377.643C450.546 379.794 439.794 375.493 431.193 366.892C425.646 361.343 420.994 361.161 413.488 360.867C409.355 360.705 404.355 360.509 397.865 359.364C389.159 357.827 380.212 358.731 372.18 359.631L371.105 359.753C362.723 360.699 355.417 361.524 350.555 359.364C345.865 357.279 339.373 355.19 332.106 353.347Z" fill="white" fill-opacity="0.5"/>
<path fill-rule="evenodd" clip-rule="evenodd" d="M960.54 397.767C961.002 396.075 962.098 394.413 963.621 392.775C983.077 410.431 993.169 419.773 1013.33 442.824C1013.72 443.767 1014.13 444.668 1014.55 445.514C1018.46 453.34 1009.85 459.601 999.675 465.08C993.965 468.156 991.706 465.805 989.024 463.013C986.928 460.831 984.573 458.38 980.109 458.037C970.344 457.286 969.23 452.21 967.773 445.577C967.712 445.298 967.65 445.016 967.587 444.732C966.658 440.556 961.881 438.58 956.515 436.36C952.826 434.834 948.859 433.192 945.67 430.641C939.087 425.376 943.023 421.217 947.233 416.769C948.029 415.928 948.835 415.076 949.582 414.204C950.641 412.969 951.66 411.892 952.631 410.867C955.964 407.348 958.722 404.436 960.54 397.767ZM1037.12 472.367C1034.9 474.985 1031.32 477.651 1025.71 478.388C1020.88 479.021 1014.28 480.807 1007.84 482.554C998.346 485.125 989.167 487.611 986.37 486.214C984.114 485.086 984.026 481.971 983.935 478.777C983.838 475.324 983.738 471.78 980.891 470.559C975.412 468.212 966.801 472.909 968.369 476.038C969.933 479.171 971.498 482.323 968.369 486.617C966.541 489.122 958.863 490.166 952.235 491.066C947.502 491.709 943.306 492.28 942.159 493.258C939.406 495.608 933.93 501.869 931.58 506.566C929.233 511.263 922.972 521.438 919.84 521.438C917.663 521.438 919.267 524.462 921.499 528.67C922.479 530.518 923.581 532.594 924.537 534.743C924.836 535.417 925.199 536.205 925.604 537.082C929.433 545.379 936.943 561.655 928.448 564.485C924.37 565.845 919.4 565.728 914.382 565.61L914.371 565.609L914.363 565.609C907.836 565.457 901.223 565.303 896.359 568.4C887.748 573.879 886.966 595.795 893.227 605.188C899.488 614.579 905.749 619.275 915.143 618.493C916.421 618.387 917.684 618.309 918.925 618.233C926.806 617.75 933.783 617.322 937.841 609.885C942.538 601.274 944.888 596.577 947.235 586.401C948.209 582.176 947.43 578.355 946.801 575.276C945.917 570.941 945.332 568.075 950.367 567.617C953.439 567.336 955.616 568.058 957.394 568.775C957.64 568.875 957.878 568.974 958.11 569.071C960.896 570.234 962.768 571.015 966.019 566.835C966.407 566.337 966.79 565.838 967.173 565.342C972.19 558.825 976.915 552.689 986.37 551.963C991.828 551.543 991.207 555.626 990.544 559.985C989.97 563.755 989.366 567.731 992.632 569.182C994.485 570.006 996.556 570.776 998.672 571.563C1004.6 573.766 1010.88 576.103 1013.77 580.14C1017.68 585.619 1023.94 595.795 1020.03 601.274C1016.11 606.753 1009.85 618.663 1014.55 618.578C1015.15 618.568 1015.78 618.584 1016.43 618.601L1016.46 618.602C1020.83 618.717 1025.92 618.828 1028.64 610.667C1029.36 608.505 1030.2 606.343 1031.03 604.229C1033.79 597.157 1036.35 590.619 1033.34 586.401C1031.72 584.14 1030.64 580.944 1029.59 577.862C1028.11 573.476 1026.7 569.318 1023.94 568.4C1019.96 567.074 1017.67 563.5 1015.16 559.582C1014.7 558.876 1014.24 558.159 1013.77 557.442C1012.52 555.579 1009.68 553.717 1007.44 552.245C1004.02 550.005 1001.98 548.67 1009.07 549.616C1020.81 551.18 1038.81 557.442 1040.38 563.703C1040.92 565.883 1041.28 567.778 1041.64 569.72C1042.32 573.354 1043.03 577.149 1045.08 583.272C1046.13 586.435 1046.3 589.333 1046.44 591.874C1046.73 596.877 1046.94 600.5 1053.68 602.056C1063.86 604.406 1065.42 605.188 1066.99 610.667C1067.77 613.407 1067.38 616.733 1067.19 618.396C1066.99 620.059 1066.99 620.059 1068.56 616.146C1071.63 608.459 1070.93 605.303 1069.42 598.524L1069.34 598.145C1068.94 596.349 1068.24 594.402 1067.54 592.47C1065.5 586.821 1063.51 581.308 1069.34 580.14C1070.97 579.814 1072.36 579.488 1073.57 579.205C1078.18 578.127 1080.17 577.662 1082.65 580.14C1084.27 581.761 1084.42 583.381 1084.62 585.543C1084.81 587.56 1085.05 590.048 1086.56 593.448C1086.82 594.029 1087.05 594.573 1087.28 595.083C1089.75 600.755 1090.4 602.25 1098.3 604.406C1102.31 605.499 1103.94 607.441 1105.49 609.284C1106.96 611.032 1108.36 612.69 1111.63 613.447C1090.38 553.879 1071.41 520.153 1037.12 472.367ZM1123.41 652.79C1116.24 650.633 1107.96 648.338 1099.08 649.021C1094.3 649.386 1090.89 646.982 1087.74 644.578C1087.57 644.454 1087.41 644.33 1087.25 644.206C1083.88 641.632 1080.73 639.224 1076.38 640.409C1075.94 640.531 1075.48 640.653 1075.03 640.776C1066.67 643.034 1056.78 645.704 1056.03 654.175C1055.66 658.451 1056.9 661.935 1057.78 664.406C1058.73 667.098 1059.26 668.587 1056.82 668.587C1052.12 668.587 1035.68 661.543 1027.86 655.282C1023.43 651.743 1018.26 650.454 1013.6 649.295C1010.02 648.404 1006.75 647.59 1004.37 645.888C998.893 641.974 988.717 634.148 990.285 631.016C990.756 630.073 992.08 628.917 993.551 627.633C996.961 624.656 1001.16 620.993 997.328 617.711C991.849 613.014 980.891 613.014 971.498 616.146C964.323 618.537 959.888 621.387 953.656 625.391C951.731 626.628 949.636 627.974 947.235 629.451C937.059 635.713 926.883 641.974 923.754 639.627C922.599 638.762 922.19 637.577 921.819 636.505C921.184 634.668 920.662 633.16 916.707 634.148C910.446 635.713 905.749 638.845 903.403 641.974C902.964 642.558 902.185 643.469 901.21 644.611C896.955 649.588 888.959 658.943 889.119 664.676C889.312 671.719 885.401 690.503 877.572 708.508C872.881 719.299 867.907 726.153 863.833 731.767C861.111 735.518 858.79 738.715 857.224 742.164L857.081 742.478C853.086 751.259 843.972 771.293 848.612 785.214C849.437 787.687 850.213 790.039 850.953 792.283C854.432 802.825 857.125 810.988 860.353 818.085C864.267 826.697 869.746 838.437 877.572 840.001C885.401 841.569 902.62 855.656 904.185 858.789C905.749 861.918 912.014 866.614 925.319 867.397C938.624 868.182 944.103 868.182 954.278 863.485C954.801 863.244 955.344 862.993 955.906 862.732C966.272 857.931 982.836 850.258 991.416 851.745C992.693 851.966 994.023 852.14 995.391 852.319C1003.71 853.407 1013.42 854.675 1020.81 867.786C1025.15 875.483 1025.71 881.488 1026.2 886.755C1026.69 891.934 1027.1 896.399 1030.98 901.056C1038.81 910.447 1043.51 918.276 1039.6 923.755C1038.62 925.126 1037.24 926.546 1035.86 927.979C1031.72 932.27 1027.47 936.671 1033.34 940.192C1035.66 941.586 1038.12 942.773 1040.54 943.938C1046.26 946.695 1051.72 949.327 1054.47 954.279C1058.38 961.326 1068.56 981.674 1066.99 989.503C1066.62 991.382 1065.92 993.801 1065.13 996.567C1062.63 1005.32 1059.13 1017.55 1061.51 1027.07C1062.92 1032.69 1062.59 1037.21 1062.29 1041.25C1062.01 1045.09 1061.77 1048.5 1063.05 1052.04C1147.45 915.528 1153.36 763.738 1123.41 652.79Z" fill="white" fill-opacity="0.5"/>
<path fill-rule="evenodd" clip-rule="evenodd" d="M576.842 277.071C569.024 275.441 563.06 274.197 559.949 268.014C637.632 259.253 727.03 264.696 820.774 303.69C818.48 308.286 816.401 310.062 814.64 311.567C813.208 312.791 811.985 313.835 811.027 316.07C809.748 319.053 810.355 320.386 811.544 323C812.506 325.112 813.847 328.06 814.881 333.391C816.615 342.335 806.648 347.192 796.028 352.366C792.487 354.092 788.873 355.853 785.596 357.813C782.693 359.549 779.98 361.266 777.338 362.937C768.058 368.809 759.663 374.12 747.067 377.721C746.645 377.841 746.219 377.963 745.788 378.086C729.728 382.667 708.333 388.771 700.83 398.526C696.895 403.643 696.777 411.17 696.681 417.311C696.589 423.197 696.517 427.811 693.123 427.811C686.188 427.811 661.529 411.628 657.675 406.234C655.736 403.519 655.553 400.219 655.359 396.727C655.168 393.279 654.966 389.642 653.053 386.197C650.94 382.394 649.754 368.863 648.605 355.763C647.659 344.969 646.738 334.468 645.346 329.944C643.543 324.082 639.103 321.913 634.956 319.888C632.015 318.452 629.221 317.088 627.622 314.529C625.383 310.949 620.284 307.888 615.8 305.195C612.564 303.252 609.649 301.502 608.357 299.887C606.815 297.962 606.815 293.724 606.815 289.293C606.815 284.862 606.815 280.238 605.272 277.54C603.62 274.649 599.316 275.521 594.014 276.595C593.709 276.657 593.4 276.719 593.088 276.782C588.713 277.662 583.749 278.543 579.072 277.54C578.314 277.378 577.57 277.223 576.842 277.071Z" fill="white" fill-opacity="0.5"/>
<path d="M912.417 445.873C910.07 444.786 900.47 445.873 900.084 448.186C899.698 450.499 901.624 453.194 902.783 454.352C903.937 455.507 906.971 460.515 906.223 462.446C905.478 464.369 904.273 473.62 906.223 475.933C908.177 478.243 912.031 481.714 912.417 485.181C912.799 488.649 911.645 495.587 910.872 499.438C910.104 503.295 908.177 507.531 910.49 510.616C912.799 513.697 915.112 513.697 917.425 512.929C919.738 512.157 919.078 513.311 921.004 509.458C922.931 505.604 927.059 501.75 928.6 498.669C930.144 495.587 931.685 493.661 931.299 490.576C930.913 487.494 931.685 485.95 928.6 482.868C925.518 479.787 925.518 479.401 924.364 475.933C923.205 472.462 926.29 471.308 922.819 468.223C919.352 465.141 920.893 463.6 917.425 463.986C913.957 464.369 913.185 468.223 912.799 462.446C912.417 456.662 920.943 455.253 918.786 451.708C917.076 448.9 914.831 446.994 912.417 445.873" fill="white" fill-opacity="0.5"/>
<path d="M898.76 473.438C897.517 471.833 896.823 470.638 893.806 470.421C890.788 470.204 886.044 470.638 885.184 473.438C884.321 476.242 883.457 478.254 881.303 479.401C879.146 480.553 876.993 480.336 875.916 484C874.836 487.664 872.899 490.034 873.329 492.622C873.759 495.209 870.62 495.855 873.268 499.086C875.916 502.32 876.129 503.614 878.286 503.614C880.44 503.614 880.599 504.26 885.479 502.537C890.355 500.813 893.589 498.439 895.529 496.932C897.47 495.422 899.796 492.838 900.033 491.545C900.27 490.251 900.66 485.077 900.033 483.783C899.407 482.49 897.683 481.487 898.116 479.401C898.546 477.319 900.111 475.182 898.76 473.438" fill="white" fill-opacity="0.5"/>
<path d="M506.108 302.152C500.202 301.603 483.819 301.092 479.044 302.152C474.266 303.215 468.96 308.521 465.245 311.173C461.53 313.828 455.692 313.296 455.692 318.074C455.692 322.849 455.161 329.218 459.939 330.278C464.714 331.342 468.411 335.971 480.893 333.39C493.372 330.81 503.456 329.073 508.763 333.39C514.069 337.708 518.847 338.24 523.622 345.669C528.4 353.099 538.484 356.813 540.604 364.775C542.727 372.736 532.114 379.106 536.361 384.943C540.604 390.781 555.995 389.19 560.241 395.556C564.488 401.926 566.079 410.415 571.917 412.01C577.755 413.602 586.776 410.415 588.368 404.577C589.963 398.739 588.368 389.718 582.002 387.067C575.632 384.412 570.326 377.514 572.449 375.919C573.309 375.276 577.223 375.939 581.785 376.6C588.473 377.571 596.559 378.547 598.452 375.391C601.635 370.084 596.329 359.082 591.554 356.888C586.776 354.694 578.287 348.324 570.326 344.078C562.364 339.831 557.59 319.134 549.097 319.134C540.604 319.134 539.544 329.218 534.766 327.095C529.991 324.972 523.622 312.764 519.907 308.521C516.192 304.275 512.979 302.788 506.108 302.152" fill="white" fill-opacity="0.5"/>
<path d="M847.325 380.904C842.432 378.168 827.908 374.521 820.245 376.434C812.585 378.351 806.199 375.784 801.092 378.344C795.985 380.904 790.239 386.011 795.986 389.204C801.732 392.397 806.839 386.651 808.755 391.757C810.669 396.867 808.115 398.144 815.138 400.697C822.162 403.251 821.522 401.974 832.378 400.697C843.231 399.421 849.614 398.781 851.531 393.034C853.448 387.287 851.385 383.17 847.325 380.904Z" fill="white" fill-opacity="0.5"/>
<path d="M464.196 742.172C463.363 738.711 479.519 736.243 484.71 735.995C489.898 735.748 496.819 736.984 498.797 739.084C500.774 741.183 503.738 745.633 506.951 747.61C510.165 749.588 508.434 751.068 513.378 752.057C518.319 753.045 520.049 751.315 519.555 754.529C519.061 757.742 513.378 759.72 510.906 759.473C508.434 759.225 502.996 757.989 500.527 756.012C498.055 754.034 487.923 746.869 484.71 746.374C481.496 745.88 464.616 743.906 464.196 742.172" fill="white" fill-opacity="0.5"/>
<path d="M564.782 769.604C564.935 771.345 559.097 772.076 555.883 772.571C552.673 773.065 541.552 774.548 540.069 775.784C538.586 777.02 532.9 780.23 530.675 779.489C528.454 778.747 525.24 775.645 524.993 774.602C524.746 773.559 525.735 767.132 526.971 765.155C528.207 763.18 529.934 760.956 532.653 761.203C535.372 761.45 538.586 762.645 540.563 761.182C542.541 759.72 544.515 758.524 546.493 759.493C548.47 760.461 564.288 763.919 564.782 769.604" fill="white" fill-opacity="0.5"/>
<path d="M912.417 445.873C910.07 444.786 900.47 445.873 900.084 448.186C899.698 450.499 901.624 453.194 902.783 454.352C903.937 455.507 906.971 460.515 906.223 462.446C905.478 464.369 904.273 473.62 906.223 475.933C908.177 478.243 912.031 481.714 912.417 485.181C912.799 488.649 911.645 495.587 910.872 499.438C910.104 503.295 908.177 507.531 910.49 510.616C912.799 513.697 915.112 513.697 917.425 512.929C919.738 512.157 919.078 513.311 921.004 509.458C922.931 505.604 927.059 501.75 928.6 498.669C930.144 495.587 931.685 493.661 931.299 490.576C930.913 487.494 931.685 485.95 928.6 482.868C925.518 479.787 925.518 479.401 924.364 475.933C923.205 472.462 926.29 471.308 922.819 468.223C919.352 465.141 920.893 463.6 917.425 463.986C913.957 464.369 913.185 468.223 912.799 462.446C912.417 456.662 920.943 455.253 918.786 451.708C917.076 448.9 914.831 446.994 912.417 445.873" fill="white" fill-opacity="0.5"/>
<path d="M898.76 473.438C897.517 471.833 896.823 470.638 893.806 470.421C890.788 470.204 886.044 470.638 885.184 473.438C884.321 476.242 883.457 478.254 881.303 479.401C879.146 480.553 876.993 480.336 875.916 484C874.836 487.664 872.899 490.034 873.329 492.622C873.759 495.209 870.62 495.855 873.268 499.086C875.916 502.32 876.129 503.614 878.286 503.614C880.44 503.614 880.599 504.26 885.479 502.537C890.355 500.813 893.589 498.439 895.529 496.932C897.47 495.422 899.796 492.838 900.033 491.545C900.27 490.251 900.66 485.077 900.033 483.783C899.407 482.49 897.683 481.487 898.116 479.401C898.546 477.319 900.111 475.182 898.76 473.438" fill="white" fill-opacity="0.5"/>
<path d="M506.108 302.152C500.202 301.603 483.819 301.092 479.044 302.152C474.266 303.215 468.96 308.521 465.245 311.173C461.53 313.828 455.692 313.296 455.692 318.074C455.692 322.849 455.161 329.218 459.939 330.278C464.714 331.342 468.411 335.971 480.893 333.39C493.372 330.81 503.456 329.073 508.763 333.39C514.069 337.708 518.847 338.24 523.622 345.669C528.4 353.099 538.484 356.813 540.604 364.775C542.727 372.736 532.114 379.106 536.361 384.943C540.604 390.781 555.995 389.19 560.241 395.556C564.488 401.926 566.079 410.415 571.917 412.01C577.755 413.602 586.776 410.415 588.368 404.577C589.963 398.739 588.368 389.718 582.002 387.067C575.632 384.412 570.326 377.514 572.449 375.919C573.309 375.276 577.223 375.939 581.785 376.6C588.473 377.571 596.559 378.547 598.452 375.391C601.635 370.084 596.329 359.082 591.554 356.888C586.776 354.694 578.287 348.324 570.326 344.078C562.364 339.831 557.59 319.134 549.097 319.134C540.604 319.134 539.544 329.218 534.766 327.095C529.991 324.972 523.622 312.764 519.907 308.521C516.192 304.275 512.979 302.788 506.108 302.152" fill="white" fill-opacity="0.5"/>
<path d="M847.325 380.904C842.432 378.168 827.908 374.521 820.245 376.434C812.585 378.351 806.199 375.784 801.092 378.344C795.985 380.904 790.239 386.011 795.986 389.204C801.732 392.397 806.839 386.651 808.755 391.757C810.669 396.867 808.115 398.144 815.138 400.697C822.162 403.251 821.522 401.974 832.378 400.697C843.231 399.421 849.614 398.781 851.531 393.034C853.448 387.287 851.385 383.17 847.325 380.904Z" fill="white" fill-opacity="0.5"/>
<path d="M546.286 1249.94C545.948 1247.86 545.782 1245.42 545.948 1241.53C545.904 1242.57 545.883 1243.5 545.883 1244.36C545.883 1246.7 546.039 1248.42 546.286 1249.94ZM552.876 1191.62C553.503 1181.37 553.614 1169.41 553.198 1159.54C552.893 1152.21 553.306 1148.18 553.902 1144.48C553.448 1147.32 553.1 1150.35 553.1 1154.92C553.1 1156.31 553.133 1157.83 553.205 1159.54C553.367 1163.44 553.448 1167.66 553.448 1171.98C553.448 1178.59 553.259 1185.42 552.876 1191.62V1191.62ZM556.327 1116.28C556.753 1104.59 557.099 1092.16 557.099 1084.16C557.099 1073.12 561.65 1062.74 552.544 1056.87C551.935 1056.48 551.241 1056.11 550.465 1055.75C551.244 1056.11 551.945 1056.48 552.554 1056.87C557.102 1059.8 558.24 1063.86 558.24 1068.57C558.24 1073.28 557.102 1078.64 557.102 1084.17C557.102 1092.17 556.764 1104.6 556.327 1116.28V1116.28ZM514.458 1042.16C508.441 1038.79 502.505 1034.38 497.253 1028.42C502.505 1034.38 508.441 1038.78 514.458 1042.16ZM497.249 1028.42C497.236 1028.4 497.222 1028.39 497.209 1028.37C497.222 1028.39 497.236 1028.4 497.249 1028.42ZM494.341 1024.99C491.828 1022.08 489.434 1019.55 487.175 1017.28C489.434 1019.55 491.828 1022.08 494.341 1024.99ZM487.172 1017.27C487.168 1017.27 487.168 1017.27 487.165 1017.27C487.168 1017.27 487.168 1017.27 487.172 1017.27ZM467.01 976.229C469.251 957.551 474.839 951.614 479.261 945.214C474.842 951.621 469.258 957.561 467.01 976.229V976.229ZM496.145 887.122C496.978 885.077 497.544 883.252 497.317 881.43C496.799 877.346 492.244 866.371 487.483 858.721C492.255 866.361 496.812 877.336 497.324 881.437C497.358 881.711 497.375 881.985 497.375 882.26C497.375 883.81 496.856 885.388 496.145 887.122ZM489.4 841.39C489 841.323 488.597 841.258 488.194 841.197C488.597 841.258 488.997 841.323 489.393 841.387C489.396 841.387 489.4 841.39 489.4 841.39ZM453.603 839.297C446.956 834.99 440.102 825.922 433.638 816.47C425.185 804.121 417.39 804.121 408.968 804.121C407.302 804.121 405.707 803.714 404.153 803.044C405.704 803.711 407.292 804.114 408.955 804.114C417.404 804.114 425.199 804.114 433.648 816.46C440.112 825.911 446.959 834.98 453.603 839.297V839.297ZM468.005 832.843C467.937 832.566 467.873 832.285 467.812 832H467.816C467.873 832.285 467.937 832.566 468.005 832.843ZM380.977 790.22C371.821 787.66 360.951 784.06 351.12 779.421C350.7 779.225 350.287 779.028 349.884 778.832C350.291 779.028 350.704 779.225 351.127 779.424C360.964 784.053 371.831 787.653 380.977 790.22V790.22ZM335.035 768.148C332.455 765.124 329.939 761.281 327.077 756.035C319.279 741.752 314.728 711.844 310.83 704.702C307.823 699.196 302.889 681.316 297.813 672.522C302.896 681.31 307.833 699.189 310.84 704.699C314.738 711.847 319.286 741.738 327.084 756.032C329.946 761.277 332.458 765.124 335.035 768.148ZM296.086 718.068C296.218 717.54 296.282 716.917 296.282 716.246C296.282 715.687 296.238 715.098 296.15 714.495C296.343 715.819 296.33 717.099 296.086 718.068V718.068ZM289.791 715.755C284.813 709.328 277.16 696.541 273.814 694.32C273.296 693.971 272.7 693.534 272.043 693.002C272.697 693.527 273.289 693.961 273.804 694.303C277.15 696.534 284.813 709.311 289.791 715.755ZM294.552 709.605C293.008 706.131 290.658 701.285 287.688 696.89C290.665 701.292 293.015 706.131 294.552 709.605ZM278.965 679.373C278.294 675.929 277.959 672.444 277.963 669.566C277.963 667.781 278.091 666.23 278.352 665.065C278.592 663.975 279.039 663.315 279.646 662.973C279.043 663.315 278.603 663.978 278.366 665.065C277.681 668.106 277.881 673.792 278.965 679.373ZM256.537 667.707C252.355 653.163 252.267 638.307 249.115 633.881C248.695 633.295 248.299 632.676 247.909 632.025C248.299 632.672 248.695 633.292 249.111 633.874C252.271 638.297 252.359 653.152 256.537 667.707ZM288.338 665.58C286.848 664.845 285.409 664.094 284.109 663.538C285.412 664.094 286.848 664.845 288.338 665.58ZM246.883 630.244C244.577 626.113 242.02 620.955 236.111 615.046C230.487 609.425 228.58 601.759 229.179 593.3C229.112 594.268 229.078 595.223 229.078 596.168C229.071 603.482 231.137 610.052 236.118 615.033C242.03 620.945 244.58 626.109 246.883 630.244ZM232.231 555.292C231.648 548.333 230.503 542.617 229.061 540.951C225.725 537.053 216.027 527.541 208.167 522.77C204.019 520.243 206.017 513.915 208.167 508.175C210.352 502.438 213.782 485.192 210.914 470.817C210.775 470.13 210.653 469.439 210.548 468.741L210.551 468.734C210.66 469.435 210.782 470.13 210.921 470.817C211.699 474.718 212.014 478.832 212.014 482.869C212.014 493.702 209.756 503.989 208.178 508.178C206.931 511.476 205.746 514.968 205.75 517.819C205.753 519.932 206.407 521.693 208.178 522.763C216.034 527.527 225.719 537.06 229.078 540.957C230.514 542.627 231.651 548.336 232.231 555.292" fill="#5AC8CF"/>
<path d="M580.796 1251.03C569.431 1250.94 557.992 1250.58 546.286 1249.94C546.039 1248.42 545.883 1246.7 545.883 1244.36C545.883 1243.5 545.903 1242.57 545.947 1241.53C545.974 1240.88 546.012 1240.2 546.059 1239.46C546.713 1229.08 549.3 1218.01 551.264 1206.97C551.975 1202.92 552.51 1197.56 552.876 1191.62C553.258 1185.42 553.448 1178.59 553.448 1171.98C553.448 1167.66 553.367 1163.44 553.204 1159.54C553.133 1157.83 553.099 1156.31 553.099 1154.92C553.099 1150.35 553.448 1147.32 553.902 1144.48C554.572 1140.32 555.47 1136.57 555.818 1129.01C555.991 1125.06 556.164 1120.73 556.326 1116.28C556.763 1104.6 557.102 1092.17 557.102 1084.17C557.102 1078.64 558.24 1073.28 558.24 1068.57C558.24 1063.86 557.102 1059.8 552.554 1056.87C551.945 1056.48 551.244 1056.11 550.465 1055.75C543.079 1052.32 528.535 1050.05 514.458 1042.16C508.441 1038.78 502.504 1034.38 497.252 1028.42L497.249 1028.42C497.235 1028.4 497.222 1028.39 497.208 1028.37C496.812 1027.92 496.423 1027.47 496.037 1027C495.464 1026.31 494.899 1025.64 494.34 1024.99C491.828 1022.08 489.433 1019.55 487.175 1017.28C487.171 1017.28 487.171 1017.27 487.171 1017.27C487.168 1017.27 487.168 1017.27 487.165 1017.27C473.287 1003.34 464.625 999.375 466.786 978.258C466.857 977.567 466.931 976.89 467.009 976.229C469.258 957.561 474.842 951.621 479.261 945.214C480.402 943.558 481.469 941.875 482.376 939.932C486.931 930.172 492.139 912.614 492.139 902.229C492.139 895.483 494.601 890.922 496.145 887.122C496.856 885.388 497.374 883.81 497.374 882.26C497.374 881.985 497.357 881.711 497.323 881.437C496.812 877.336 492.254 866.361 487.483 858.721C486.206 856.673 484.919 854.864 483.687 853.486C477.825 847.001 468.096 843.104 459.644 841.793C457.66 841.492 455.641 840.618 453.603 839.297C446.959 834.98 440.112 825.911 433.647 816.46C425.199 804.114 417.403 804.114 408.954 804.114C407.292 804.114 405.704 803.711 404.153 803.044C397.82 800.314 392.081 793.193 384.268 791.117C383.202 790.833 382.101 790.535 380.977 790.22C371.83 787.653 360.964 784.053 351.127 779.424C350.703 779.225 350.29 779.028 349.884 778.832C343.575 775.784 339.217 773.041 335.035 768.148C332.458 765.124 329.945 761.277 327.084 756.032C319.285 741.738 314.737 711.847 310.84 704.699C307.833 699.189 302.896 681.31 297.813 672.522C296.306 669.915 294.789 668.103 293.302 667.656C291.653 667.165 289.963 666.383 288.338 665.58C286.848 664.845 285.412 664.094 284.108 663.538C282.896 663.02 281.799 662.675 280.891 662.675C280.424 662.675 280.004 662.766 279.645 662.973C279.039 663.315 278.592 663.975 278.352 665.065C278.091 666.23 277.962 667.781 277.962 669.566C277.959 672.444 278.294 675.929 278.965 679.373C279.957 684.503 281.701 689.545 284.196 692.356C285.436 693.751 286.604 695.292 287.688 696.89C290.657 701.285 293.008 706.131 294.552 709.605C294.802 710.174 295.029 710.703 295.236 711.19C295.679 712.216 295.987 713.371 296.15 714.495C296.238 715.098 296.282 715.687 296.282 716.246C296.282 716.917 296.218 717.54 296.086 718.068C295.828 719.107 295.307 719.792 294.497 719.792C293.851 719.792 293.021 719.358 291.992 718.332C291.352 717.692 290.607 716.812 289.791 715.755C284.813 709.311 277.149 696.534 273.804 694.303C273.289 693.961 272.696 693.527 272.043 693.002C267.746 689.511 260.861 681.926 256.91 668.966C256.781 668.547 256.659 668.127 256.537 667.707C252.358 653.152 252.27 638.297 249.111 633.874C248.694 633.292 248.298 632.672 247.909 632.025C247.563 631.456 247.228 630.86 246.883 630.244C244.58 626.109 242.03 620.945 236.118 615.033C231.136 610.052 229.071 603.482 229.078 596.168C229.078 595.223 229.111 594.268 229.179 593.3C229.413 590.032 230.019 586.642 230.933 583.205C232.789 576.138 233.012 564.601 232.23 555.292C231.651 548.336 230.513 542.627 229.078 540.957C225.718 537.06 216.033 527.527 208.177 522.763C206.406 521.693 205.753 519.932 205.749 517.819C205.746 514.968 206.931 511.476 208.177 508.178C209.755 503.989 212.014 493.702 212.014 482.869C212.014 478.832 211.699 474.718 210.92 470.817C210.781 470.13 210.659 469.435 210.551 468.734C217.473 459.625 224.679 450.763 232.176 442.145C238.136 456.656 241.387 473.729 245.217 487.809C253.323 517.626 258 546.284 254.729 577.188C255.172 577.093 255.602 577.045 256.019 577.045C267.008 577.045 267.326 609.422 268.199 618.165C268.917 625.463 266.608 633.725 268.169 640.867C268.887 644.216 271.924 652.15 275.033 652.15C276.239 652.15 277.454 650.962 278.551 647.853C286.194 647.409 293.519 646.383 300.349 646.383C311.297 646.383 320.972 649.021 328.635 660.951C336.867 673.829 337.649 690.7 340.141 705.359C344.198 728.996 355.36 760.898 376.94 773.81C389.978 781.605 406.411 786.004 420.102 792.8C433.387 799.38 443.769 811.479 454.375 822.241C458.676 826.606 463.135 829.569 467.812 832C467.873 832.285 467.937 832.566 468.005 832.843C469.129 837.337 471.594 840.53 476.681 840.53C476.88 840.53 477.084 840.523 477.293 840.513C478.001 840.476 478.712 840.456 479.427 840.456C482.342 840.456 485.309 840.757 488.194 841.197C488.597 841.258 489 841.323 489.4 841.39C490.459 841.888 491.546 842.416 492.637 842.978C501.12 847.313 509.446 851.18 513.127 859.598C517.709 870.17 516.649 888.572 517.648 900.204C518.928 915.201 520.079 923.156 528.687 934.788C537.512 946.698 535.05 953.809 533.709 968.465C531.806 989.328 531.088 1022.48 552.73 1031.99C571.754 1040.38 597.358 1031.59 603.752 1056.63C609.393 1078.64 603.626 1107.99 600.382 1129.75C595.922 1159.69 578.429 1186.61 574.216 1215.98C572.533 1227.74 577.586 1231.54 579.956 1241.74C580.62 1244.57 580.857 1247.75 580.796 1251.03" fill="white" fill-opacity="0.25"/>
<path d="M1038.45 925.194C1038.45 925.191 1038.45 925.191 1038.45 925.191C1038.86 924.703 1039.25 924.219 1039.59 923.741C1040.06 923.091 1040.41 922.411 1040.64 921.696C1040.41 922.414 1040.06 923.101 1039.6 923.755C1039.26 924.229 1038.87 924.706 1038.45 925.194ZM951.051 864.877C952.08 864.468 953.15 864.004 954.278 863.486C958.233 861.66 963.357 859.242 968.673 857.065C963.357 859.246 958.233 861.664 954.271 863.492C953.144 864.01 952.077 864.471 951.051 864.877ZM912.369 864.85C908.482 863.35 906.05 861.45 904.808 859.784C906.054 861.444 908.482 863.347 912.369 864.85ZM880.626 841.014C879.515 840.536 878.486 840.191 877.585 840.012C876.011 839.697 874.531 838.969 873.139 837.939C874.524 838.965 876 839.69 877.572 840.001C878.479 840.184 879.509 840.533 880.626 841.014ZM864.9 827.401C863.18 824.279 861.673 821.004 860.342 818.089C856.526 809.66 853.427 799.742 848.91 786.105C853.441 799.732 856.522 809.66 860.352 818.085C861.68 821.004 863.183 824.282 864.9 827.401V827.401ZM847.914 782.621C845.012 768.723 853.529 750.244 857.223 742.151C859.743 736.587 864.246 731.67 869.231 724.027C864.25 731.677 859.753 736.594 857.223 742.164C854.057 749.127 847.312 763.762 847.325 776.559C847.328 778.642 847.511 780.677 847.914 782.621V782.621ZM925.572 640.132C924.827 640.132 924.214 639.973 923.754 639.627C923.652 639.553 923.554 639.471 923.466 639.39C923.551 639.468 923.642 639.543 923.74 639.614C924.208 639.966 924.827 640.128 925.579 640.128C926.334 640.128 927.218 639.966 928.214 639.668C927.215 639.969 926.328 640.132 925.572 640.132ZM937.526 635.279C940.597 633.535 943.909 631.493 947.221 629.448C957.421 623.18 962.097 619.282 971.484 616.133C974.975 614.975 978.673 614.25 982.222 614.034C978.673 614.257 974.979 614.985 971.497 616.147C962.107 619.276 957.41 623.19 947.235 629.451C943.916 631.493 940.601 633.535 937.526 635.279ZM921.309 635.228C920.916 634.466 920.334 633.918 919.135 633.843C920.337 633.911 920.916 634.463 921.309 635.228Z" fill="#5AC8CF"/>
<path d="M1067.27 939.369C1060.66 934.398 1052.11 927.378 1038.46 925.194C1038.87 924.706 1039.26 924.229 1039.6 923.755C1040.06 923.101 1040.41 922.414 1040.64 921.696C1042.36 916.4 1037.88 909.336 1030.98 901.04C1023.16 891.653 1029.43 883.045 1020.82 867.796C1012.21 852.517 1000.45 853.296 991.413 851.735C990.678 851.61 989.882 851.549 989.039 851.549C983.539 851.549 975.927 854.085 968.674 857.065C963.357 859.242 958.234 861.66 954.278 863.486C953.151 864.004 952.081 864.468 951.051 864.877C945.484 867.092 941.102 867.776 935.22 867.776C932.376 867.776 929.183 867.617 925.329 867.39C919.887 867.072 915.62 866.103 912.37 864.85C908.482 863.347 906.054 861.444 904.808 859.784C904.551 859.439 904.344 859.104 904.188 858.785C902.807 856.026 889.17 844.671 880.626 841.014C879.509 840.533 878.479 840.184 877.572 840.001C876.001 839.69 874.524 838.965 873.139 837.939C869.956 835.582 867.233 831.634 864.9 827.401C863.183 824.282 861.68 821.004 860.353 818.085C856.523 809.66 853.441 799.732 848.91 786.105C848.812 785.81 848.714 785.516 848.616 785.218C848.335 784.375 848.101 783.504 847.915 782.621C847.512 780.677 847.329 778.642 847.325 776.559C847.312 763.762 854.057 749.127 857.224 742.164C859.753 736.594 864.25 731.677 869.231 724.027C871.954 719.852 874.822 714.861 877.585 708.505C885.415 690.51 889.312 671.706 889.126 664.689C888.936 657.639 901.07 645.103 903.406 641.984C905.746 638.835 910.456 635.716 916.724 634.158C917.595 633.935 918.299 633.837 918.875 633.837C918.963 633.837 919.051 633.84 919.135 633.843C920.334 633.918 920.917 634.466 921.309 635.228C921.932 636.434 922.085 638.168 923.467 639.39C923.555 639.471 923.653 639.553 923.754 639.627C924.215 639.973 924.828 640.132 925.573 640.132C926.328 640.132 927.215 639.969 928.214 639.668C930.744 638.916 933.971 637.297 937.526 635.279C940.601 633.535 943.916 631.493 947.235 629.451C957.411 623.19 962.108 619.276 971.498 616.147C974.979 614.985 978.673 614.257 982.222 614.034C982.954 613.99 983.678 613.969 984.396 613.969C988.064 613.969 991.484 614.555 994.25 615.821C989.838 625.842 980.522 637.362 967.383 637.362C966.862 637.362 966.34 637.345 965.809 637.308C962.846 642.922 959.199 653.836 954.925 658.201C948.346 664.875 938.271 664.283 931.35 671.922C914.198 690.916 918.939 706.662 915.851 729.398C912.949 750.789 899.227 778.266 910.267 800.189C915.729 811.018 929.227 812.064 942.961 812.064C944.604 812.064 946.249 812.051 947.885 812.034C949.521 812.021 951.146 812.007 952.751 812.007C959.178 812.007 965.23 812.247 970.048 813.69C994.873 821.082 1019.54 826.883 1041.62 840.665C1060.69 852.588 1072.57 866.55 1081.89 884.721C1078.09 903.339 1073.21 921.591 1067.27 939.369" fill="white" fill-opacity="0.25"/>
<path d="M693.127 427.814C691.728 427.814 689.601 427.15 687.072 426.053C689.598 427.15 691.721 427.811 693.123 427.811C694.376 427.811 695.175 427.181 695.693 426.09C695.179 427.184 694.38 427.814 693.127 427.814V427.814ZM663.05 411.245C660.486 409.23 658.546 407.456 657.669 406.233C654.343 401.557 656.199 395.143 654.252 388.99C656.209 395.136 654.333 401.553 657.675 406.233C658.549 407.456 660.489 409.23 663.05 411.245ZM697.376 407.171C697.925 404.015 698.934 400.991 700.831 398.526C708.534 388.509 730.884 382.343 747.067 377.72C751.523 376.447 755.451 374.961 759.082 373.308C755.458 374.961 751.53 376.451 747.077 377.731C730.891 382.346 708.531 388.519 700.831 398.529C698.934 400.991 697.925 404.015 697.376 407.171V407.171ZM651.465 380.887C650.53 376.122 649.809 369.184 649.149 361.876C649.812 369.18 650.53 376.119 651.465 380.887ZM811.691 323.326C810.892 321.559 810.313 320.384 810.313 318.995C810.316 318.155 810.526 317.241 811.028 316.069C812.176 313.394 813.699 312.426 815.511 310.814C813.703 312.429 812.182 313.401 811.038 316.076C809.71 319.181 810.415 320.499 811.691 323.326V323.326ZM629.454 316.632C628.743 316.019 628.113 315.328 627.608 314.518C626.664 313.008 625.208 311.586 623.501 310.245C625.211 311.589 626.674 313.012 627.622 314.529C628.127 315.335 628.746 316.022 629.454 316.632V316.632ZM820.022 305.115C820.272 304.664 820.526 304.183 820.784 303.665L820.787 303.669C820.53 304.183 820.272 304.664 820.022 305.115ZM560.621 269.206C560.384 268.83 560.157 268.431 559.943 268.011L559.947 268.008C560.16 268.431 560.384 268.83 560.621 269.206" fill="#5AC8CF"/>
<path d="M693.123 427.811C691.721 427.811 689.598 427.151 687.072 426.054C679.917 422.942 669.511 416.331 663.05 411.245C660.489 409.23 658.549 407.456 657.675 406.234C654.333 401.554 656.209 395.137 654.252 388.99C653.951 388.046 653.564 387.108 653.053 386.183C652.457 385.113 651.936 383.271 651.465 380.887C650.53 376.119 649.812 369.181 649.149 361.876C647.994 349.157 647.009 335.331 645.353 329.954C642.671 321.231 634.175 320.675 629.454 316.632C628.746 316.022 628.127 315.335 627.622 314.529C626.674 313.012 625.211 311.59 623.501 310.245C618.269 306.138 610.694 302.785 608.364 299.893C605.279 296.026 608.364 282.928 605.279 277.534C604.443 276.074 602.932 275.573 600.958 275.573C598.798 275.573 596.082 276.172 593.092 276.775C590.102 277.375 586.834 277.977 583.573 277.977C582.066 277.977 580.559 277.849 579.083 277.534C570.722 275.746 564.217 274.875 560.621 269.207C560.384 268.831 560.16 268.431 559.947 268.008C580.441 265.539 601.31 264.27 622.468 264.27C623.149 264.27 623.846 264.27 624.524 264.273C625.431 265.418 626.643 266.623 628.262 267.961C635.495 273.917 644.479 271.858 651.712 276.162C662.189 282.43 672.887 299.612 676.629 310.838C681.308 324.905 676.537 336.692 676.629 350.912C676.784 371.317 683.628 376.434 694.884 376.434C701.674 376.434 710.068 374.575 719.57 373.085C742.086 369.56 763.948 353.563 776.484 334.322C783.812 323.032 784.655 312.958 794.133 302.42C796.175 300.161 798.305 297.933 800.51 295.738C807.33 298.241 814.102 300.889 820.784 303.666C820.526 304.184 820.272 304.665 820.022 305.115C818.379 308.031 816.866 309.602 815.511 310.814C813.699 312.426 812.176 313.395 811.028 316.07C810.526 317.241 810.316 318.156 810.313 318.996C810.313 320.384 810.892 321.559 811.691 323.327C812.636 325.413 813.892 328.325 814.874 333.384C817.18 345.331 798.688 349.977 785.59 357.803C776.094 363.478 768.634 368.954 759.082 373.309C755.452 374.961 751.523 376.448 747.067 377.721C730.884 382.343 708.534 388.51 700.831 398.526C698.934 400.992 697.925 404.016 697.376 407.172C696.096 414.533 697.322 422.63 695.693 426.091C695.175 427.181 694.376 427.811 693.123 427.811Z" fill="white" fill-opacity="0.25"/>
<path d="M1018.66 618.629C1022.44 618.537 1026.36 617.494 1028.64 610.674C1030.72 604.434 1033.83 598.196 1034.54 593.106C1033.84 598.199 1030.72 604.447 1028.65 610.681C1026.36 617.505 1022.44 618.544 1018.66 618.629ZM1013.02 617.637C1012.36 615.862 1013.92 611.836 1015.97 607.945C1014.24 611.23 1012.87 614.606 1012.87 616.648C1012.88 617.027 1012.92 617.359 1013.02 617.637ZM1061.37 604.152C1059.57 603.479 1057.12 602.866 1053.69 602.077C1052.22 601.735 1051.07 601.298 1050.15 600.77C1051.07 601.291 1052.22 601.728 1053.68 602.063C1057.12 602.856 1059.57 603.468 1061.37 604.146L1061.37 604.152V604.152ZM1021.18 595.666C1020.58 590.611 1016.9 584.62 1014.14 580.679C1016.91 584.617 1020.59 590.614 1021.18 595.666ZM1013.14 579.351C1010.78 576.656 1006.86 574.756 1002.7 573.1C1006.86 574.756 1010.79 576.656 1013.14 579.351ZM1043.76 579.06C1041.89 572.541 1041.68 568.959 1040.37 563.717C1039.74 561.18 1036.41 558.641 1031.9 556.416C1036.42 558.641 1039.75 561.174 1040.38 563.71C1041.69 568.945 1041.9 572.538 1043.76 579.06ZM1029.97 578.989C1028.34 574.214 1026.93 569.406 1023.94 568.407C1021.3 567.526 1019.4 565.657 1017.69 563.354C1019.41 565.657 1021.31 567.519 1023.94 568.397C1026.93 569.409 1028.34 574.214 1029.97 578.989ZM990.895 567.743C988.802 564.55 991.507 558.275 990.851 554.675C990.854 554.665 990.857 554.655 990.861 554.648C990.939 555.061 990.969 555.508 990.969 555.982C990.969 558.454 990.092 561.651 990.089 564.34C990.089 565.637 990.292 566.818 990.895 567.743V567.743ZM1014.75 558.962C1014.43 558.461 1014.1 557.953 1013.77 557.449C1012.5 555.546 1009.55 553.639 1007.28 552.152C1009.55 553.636 1012.5 555.542 1013.77 557.449C1014.11 557.957 1014.43 558.461 1014.75 558.962ZM1011.82 550.053C1010.87 549.884 1009.95 549.738 1009.06 549.623C1007.49 549.413 1006.37 549.318 1005.61 549.318C1005.01 549.318 1004.64 549.379 1004.45 549.494C1004.63 549.376 1005.01 549.315 1005.61 549.315C1006.37 549.315 1007.49 549.413 1009.07 549.623C1009.95 549.738 1010.87 549.884 1011.82 550.053" fill="#5AC8CF"/>
<path d="M1018.1 618.632C1017.54 618.632 1016.98 618.619 1016.44 618.602C1015.9 618.585 1015.37 618.571 1014.85 618.571C1014.75 618.571 1014.65 618.571 1014.55 618.571C1014.53 618.571 1014.51 618.571 1014.5 618.571C1013.71 618.571 1013.24 618.233 1013.02 617.637C1012.92 617.359 1012.87 617.027 1012.87 616.648C1012.87 614.606 1014.24 611.23 1015.97 607.945C1017.27 605.47 1018.78 603.048 1020.04 601.298C1021.15 599.726 1021.44 597.779 1021.18 595.666C1020.59 590.614 1016.91 584.617 1014.14 580.678C1014.02 580.499 1013.89 580.323 1013.77 580.154C1013.58 579.879 1013.36 579.612 1013.14 579.351C1010.79 576.655 1006.86 574.756 1002.7 573.1C999.258 571.732 995.655 570.53 992.628 569.175C991.846 568.83 991.287 568.342 990.894 567.743C990.292 566.818 990.088 565.637 990.088 564.34C990.092 561.651 990.969 558.454 990.969 555.982C990.969 555.508 990.938 555.061 990.86 554.648C993.871 547.269 992.042 542.098 999.113 535.123C1005.02 529.278 1011.19 526.89 1017.5 526.89C1021.96 526.89 1026.49 528.072 1031.05 530.07C1042.94 554.651 1053.02 579.365 1061.37 604.145C1059.57 603.468 1057.12 602.855 1053.68 602.063C1052.22 601.728 1051.07 601.291 1050.15 600.769C1044.71 597.627 1047.75 591.308 1045.08 583.272C1044.56 581.732 1044.13 580.34 1043.76 579.06C1041.9 572.538 1041.69 568.945 1040.38 563.71C1039.75 561.173 1036.42 558.64 1031.9 556.416C1026.1 553.558 1018.35 551.218 1011.81 550.053C1010.87 549.883 1009.95 549.738 1009.07 549.623C1007.49 549.413 1006.37 549.314 1005.61 549.314C1005 549.314 1004.63 549.375 1004.45 549.494C1003.84 549.877 1005.31 550.855 1007.28 552.152C1009.55 553.639 1012.5 555.545 1013.77 557.448C1014.1 557.953 1014.43 558.461 1014.75 558.962C1015.74 560.499 1016.68 562 1017.69 563.351C1017.69 563.351 1017.69 563.354 1017.69 563.354C1019.4 565.657 1021.3 567.526 1023.94 568.406C1026.93 569.405 1028.34 574.214 1029.97 578.989C1030.9 581.711 1031.91 584.427 1033.32 586.422C1034.64 588.254 1034.9 590.533 1034.54 593.106C1033.83 598.196 1030.72 604.433 1028.64 610.674C1026.36 617.494 1022.44 618.537 1018.66 618.629C1018.47 618.632 1018.28 618.632 1018.1 618.632V618.632ZM1111.65 613.454C1111.64 613.451 1111.64 613.451 1111.63 613.451C1103.33 589.249 1093.28 565.85 1081.63 543.422C1081.64 543.422 1081.65 543.426 1081.65 543.426C1093.29 565.853 1103.35 589.253 1111.65 613.454" fill="white" fill-opacity="0.25"/>
<path d="M913.168 618.595C907.628 618.595 903.199 616.516 899.146 612.554C903.202 616.512 907.628 618.585 913.168 618.585C913.812 618.585 914.469 618.558 915.142 618.5C924.536 617.718 933.144 618.5 937.841 609.892C939.72 606.445 941.224 603.628 942.5 600.837C942.504 600.834 942.511 600.83 942.514 600.827C941.234 603.634 939.707 606.472 937.834 609.902C933.158 618.51 924.55 617.731 915.132 618.51C914.462 618.564 913.808 618.595 913.168 618.595ZM892.238 573.215C893.321 571.133 894.696 569.456 896.359 568.396C899.393 566.473 903.104 565.809 907.053 565.616C903.104 565.809 899.393 566.476 896.359 568.407C894.693 569.467 893.325 571.136 892.238 573.215V573.215ZM918.603 565.684C917.208 565.684 915.793 565.65 914.37 565.616C914.174 565.613 913.978 565.609 913.778 565.603C913.978 565.609 914.174 565.613 914.374 565.616C915.793 565.65 917.211 565.684 918.603 565.684C919.687 565.684 920.754 565.664 921.8 565.609C920.754 565.664 919.687 565.684 918.603 565.684ZM907.056 565.616C907.059 565.616 907.059 565.616 907.059 565.616C907.059 565.616 907.059 565.616 907.056 565.616ZM930.032 563.689C932.45 561.901 932.721 558.366 931.955 554.286C932.199 555.579 932.338 556.819 932.338 557.963C932.335 560.435 931.685 562.47 930.032 563.689ZM918.908 521.882C919.05 521.588 919.348 521.432 919.843 521.432C922.961 521.432 929.229 511.266 931.566 506.586C931.901 505.926 932.294 505.232 932.734 504.524C932.297 505.225 931.908 505.916 931.58 506.573C929.233 511.269 922.972 521.445 919.839 521.445C919.352 521.445 919.054 521.598 918.908 521.882ZM936.517 499.285C937.289 498.334 938.071 497.426 938.823 496.597C938.071 497.426 937.289 498.337 936.517 499.285ZM988.754 486.624C988.463 486.624 988.192 486.614 987.934 486.593C988.185 486.614 988.456 486.624 988.74 486.624C992.496 486.624 999.052 484.931 1005.99 483.058V483.062C999.058 484.931 992.506 486.624 988.754 486.624ZM968.399 486.58C971.474 482.3 969.919 479.164 968.365 476.055C968.202 475.73 968.152 475.388 968.192 475.039C968.185 475.114 968.179 475.185 968.182 475.26C968.182 475.53 968.24 475.791 968.368 476.045C969.272 477.857 970.177 479.675 970.177 481.714C970.173 483.194 969.696 484.789 968.399 486.58ZM983.624 474.66C983.295 472.818 982.57 471.287 980.891 470.566C980.586 470.437 980.271 470.329 979.953 470.241C980.278 470.329 980.593 470.437 980.901 470.569C982.577 471.284 983.295 472.815 983.624 474.66" fill="#5AC8CF"/>
<path d="M913.169 618.585C907.629 618.585 903.203 616.513 899.146 612.554C897.114 610.566 895.174 608.104 893.24 605.196C888.185 597.624 887.714 581.894 892.238 573.215C893.325 571.136 894.693 569.467 896.359 568.407C899.393 566.477 903.105 565.809 907.053 565.616C907.056 565.616 907.056 565.616 907.056 565.616C907.06 565.616 907.06 565.616 907.06 565.616C908.065 565.569 909.088 565.552 910.118 565.552C911.33 565.552 912.556 565.576 913.778 565.603C913.978 565.61 914.174 565.613 914.371 565.616C915.793 565.65 917.209 565.684 918.604 565.684C919.687 565.684 920.754 565.664 921.8 565.61C924.167 565.481 926.419 565.173 928.448 564.499C929.057 564.296 929.582 564.021 930.032 563.69C931.685 562.471 932.335 560.435 932.339 557.963C932.339 556.819 932.2 555.579 931.956 554.286C930.659 547.368 926.385 538.895 924.55 534.747C921.899 528.814 918.167 523.437 918.909 521.882C919.054 521.598 919.352 521.445 919.84 521.445C922.972 521.445 929.233 511.27 931.58 506.573C931.908 505.916 932.298 505.225 932.735 504.524C933.805 502.797 935.142 500.975 936.517 499.286C937.289 498.337 938.072 497.426 938.823 496.597C940.09 495.202 941.272 494.03 942.169 493.271C944.915 490.931 965.247 490.932 968.365 486.628C968.379 486.614 968.389 486.597 968.399 486.58C969.696 484.789 970.174 483.194 970.177 481.714C970.177 479.675 969.273 477.857 968.369 476.045C968.24 475.791 968.183 475.531 968.183 475.26C968.179 475.185 968.186 475.114 968.193 475.04C968.481 472.649 973.174 469.936 977.559 469.936C978.379 469.936 979.185 470.031 979.953 470.241C980.272 470.329 980.587 470.438 980.891 470.566C982.571 471.288 983.296 472.818 983.624 474.66C984.369 478.829 983.116 484.602 986.36 486.225C986.76 486.421 987.291 486.543 987.935 486.594C988.192 486.614 988.463 486.624 988.754 486.624C992.506 486.624 999.059 484.931 1005.99 483.062C1007.57 485.764 1009.1 488.422 1010.63 491.131C997.789 494.453 983.333 495.13 973.885 496.045C966.12 496.827 946.91 497.575 941.983 505.682C937.15 513.603 948.156 531.472 946.537 541.983C944.915 552.4 942.078 563.686 932.816 569.582C925.83 574.042 902.471 572.013 900.568 580.371C899.071 587.045 916.223 600.113 921.37 602.48C924.184 603.75 927.218 604.379 930.273 604.379C934.489 604.379 938.742 603.184 942.501 600.837C941.224 603.628 939.721 606.445 937.841 609.892C933.144 618.5 924.536 617.718 915.143 618.5C914.469 618.558 913.812 618.585 913.169 618.585" fill="white" fill-opacity="0.25"/>
<path d="M971.826 455.115C969.188 452.7 968.531 449.016 967.586 444.746C966.025 437.699 953.489 436.92 945.663 430.652C941.684 427.469 941.549 424.692 942.995 422.014C942.473 422.982 942.158 423.964 942.158 424.973C942.155 426.754 943.13 428.62 945.67 430.649C953.496 436.91 966.018 437.692 967.586 444.739C968.531 449.002 969.195 452.694 971.826 455.115Z" fill="#5AC8CF"/>
<path d="M994.954 466.533C989.414 466.533 988.378 458.667 980.122 458.033C976.099 457.725 973.543 456.689 971.826 455.114C969.195 452.693 968.531 449.002 967.586 444.739C966.018 437.692 953.496 436.91 945.67 430.648C943.13 428.62 942.155 426.754 942.158 424.973C942.158 423.964 942.473 422.982 942.995 422.013C944.393 419.419 947.275 416.917 949.591 414.218C951.715 411.726 953.685 409.884 955.423 407.808C970.167 427.086 983.691 446.679 995.98 466.448C995.621 466.506 995.279 466.533 994.954 466.533V466.533ZM1013.36 442.91C1010.68 439.822 1007.98 436.781 1005.24 433.76C1005.25 433.754 1005.25 433.743 1005.26 433.737C1007.98 436.737 1010.67 439.764 1013.32 442.832C1013.34 442.856 1013.35 442.883 1013.36 442.91Z" fill="white" fill-opacity="0.25"/>
<path d="M568.08 409.501C565.067 406.122 563.38 400.267 560.248 395.57C559.845 394.964 559.344 394.429 558.761 393.955C559.34 394.426 559.842 394.957 560.241 395.557C563.377 400.26 565.063 406.119 568.08 409.501ZM585.398 408.912C586.837 407.72 587.911 406.261 588.368 404.578C588.747 403.2 588.943 401.642 588.943 400.033C588.943 396.461 587.961 392.634 585.771 389.932C585.777 389.929 585.781 389.925 585.787 389.925C588.967 393.853 589.594 400.152 588.375 404.581C587.917 406.261 586.841 407.724 585.398 408.912ZM535.379 381.344C535.867 376.478 542.294 371.141 540.601 364.789C539.95 362.344 538.555 360.298 536.794 358.426C538.559 360.298 539.954 362.337 540.604 364.775C540.8 365.507 540.888 366.225 540.888 366.929C540.902 372.354 535.816 377.034 535.379 381.344V381.344ZM521.736 343.072C517.956 338.514 514.15 337.353 510.046 334.376C514.157 337.346 517.97 338.508 521.736 343.072ZM457.528 328.921C455.357 326.547 455.682 321.82 455.682 318.075C455.682 313.774 460.413 313.771 464.09 311.874C460.433 313.774 455.692 313.767 455.692 318.075C455.692 318.942 455.676 319.863 455.676 320.794C455.676 323.882 455.865 327.092 457.528 328.921Z" fill="#5AC8CF"/>
<path d="M575.175 412.41C574.027 412.41 572.919 412.278 571.91 412.004C570.386 411.587 569.151 410.7 568.08 409.501C565.063 406.118 563.377 400.26 560.241 395.557C559.842 394.957 559.34 394.426 558.761 393.955C553.188 389.41 540.198 390.213 536.361 384.934C535.508 383.762 535.254 382.567 535.379 381.344C535.816 377.033 540.902 372.354 540.888 366.929C540.888 366.224 540.8 365.507 540.604 364.775C539.954 362.337 538.559 360.298 536.794 358.426C532.805 354.183 526.944 350.82 523.635 345.673C523.002 344.694 522.369 343.834 521.736 343.072C517.97 338.507 514.157 337.346 510.046 334.376C509.619 334.068 509.193 333.74 508.759 333.384C506.426 331.491 503.165 330.763 499.179 330.763C494.113 330.763 487.879 331.938 480.88 333.384C478.228 333.936 475.973 334.16 474.019 334.16C466.789 334.16 463.704 331.102 459.925 330.269C458.899 330.038 458.12 329.568 457.528 328.921C455.865 327.092 455.676 323.882 455.676 320.794C455.676 319.863 455.692 318.941 455.692 318.075C455.692 313.767 460.433 313.774 464.09 311.874C464.094 311.874 464.101 311.871 464.104 311.867C474.988 316.578 497.689 315.454 501.12 316.266C511.411 318.728 527.191 333.665 535.267 339.872C549.551 350.786 551.142 364.01 559.5 378.229C565.558 388.523 570.488 392.251 576.34 392.251C579.188 392.251 582.252 391.368 585.771 389.932C587.961 392.634 588.943 396.461 588.943 400.033C588.943 401.642 588.747 403.199 588.368 404.578C587.911 406.261 586.837 407.72 585.398 408.912C582.706 411.134 578.744 412.41 575.175 412.41" fill="white" fill-opacity="0.25"/>
<path d="M622.475 1298.31C568.121 1298.31 515.715 1289.92 466.498 1274.36C493.622 1282.93 521.718 1289.33 550.573 1293.34C557.153 1294.26 563.746 1295.05 570.403 1295.71C574.206 1296.09 578.04 1296.43 581.866 1296.73C595.262 1297.77 608.804 1298.3 622.468 1298.3C743.633 1298.3 855.056 1256.63 943.198 1186.83C855.059 1256.63 743.63 1298.31 622.475 1298.31ZM466.346 1274.31C466.298 1274.3 466.264 1274.29 466.217 1274.27C466.264 1274.29 466.298 1274.3 466.346 1274.31Z" fill="#273667"/>
<path d="M456.119 1248.82C440.427 1248.82 423.343 1241.05 412.433 1231.89C434.23 1236.48 455.534 1240.21 476.4 1243.12C475.645 1243.62 474.852 1244.1 474.023 1244.56C468.622 1247.54 462.486 1248.82 456.119 1248.82" fill="#68CCE3"/>
<path d="M581.866 1296.73C578.04 1296.44 574.206 1296.09 570.404 1295.71C573.163 1287.39 575.486 1279.29 577.4 1272.37C579.039 1266.39 580.664 1258.42 580.796 1251.04C582.899 1251.05 585.036 1251.06 587.125 1251.06C593.539 1251.06 599.912 1250.98 606.214 1250.81C607.226 1253.2 607.802 1255.71 607.802 1258.1C607.798 1261.49 606.627 1264.62 603.887 1266.75C598.039 1271.3 592.191 1275.2 592.191 1281.05C592.191 1286.9 590.891 1293.39 586.343 1294.04C585.371 1294.18 583.803 1295.21 581.866 1296.73" fill="white" fill-opacity="0.25"/>
<path d="M550.58 1293.34H550.573C552.636 1288.79 554.183 1283.63 552.544 1277.14C550.611 1269.34 549.3 1264.16 547.99 1257.65C547.346 1254.37 546.693 1252.41 546.286 1249.94C546.693 1252.42 547.35 1254.37 548.007 1257.66C549.307 1264.15 550.607 1269.35 552.554 1277.15C553.025 1279.04 553.232 1280.81 553.235 1282.49C553.242 1286.59 552.043 1290.12 550.58 1293.34" fill="#4CB7C3"/>
<path d="M570.404 1295.71C563.746 1295.05 557.16 1294.26 550.58 1293.34C552.043 1290.12 553.242 1286.59 553.235 1282.49C553.232 1280.81 553.025 1279.04 552.554 1277.15C550.607 1269.35 549.307 1264.15 548.007 1257.66C547.35 1254.37 546.693 1252.42 546.286 1249.94C557.993 1250.58 569.432 1250.94 580.796 1251.04C580.664 1258.42 579.039 1266.39 577.4 1272.37C575.487 1279.29 573.163 1287.39 570.404 1295.71Z" fill="white" fill-opacity="0.25"/>
<path d="M993.271 441.519C989.177 441.519 984.592 439.216 979.746 433.585C970.393 422.732 975.693 399.346 960.976 396.566C961.545 395.299 962.449 394.047 963.597 392.811C978.229 405.668 992.14 419.346 1005.24 433.761C1002.16 438.39 998.046 441.519 993.271 441.519V441.519ZM955.423 407.808C957.465 405.364 959.185 402.597 960.458 398.073C959.188 402.6 957.468 405.364 955.423 407.808ZM960.539 397.771C960.607 397.528 960.688 397.284 960.78 397.04C960.692 397.284 960.617 397.528 960.539 397.771Z" fill="white" fill-opacity="0.25"/>
<path d="M1067.13 619.446C1067.11 619.446 1067.1 619.425 1067.1 619.385C1067.1 619.368 1067.1 619.347 1067.1 619.327C1067.1 619.134 1067.15 618.734 1067.21 618.193C1067.41 616.476 1067.75 613.306 1067.01 610.682C1066.7 609.642 1066.4 608.772 1066.04 608.027C1065.16 606.168 1063.9 605.094 1061.37 604.146C1053.02 579.365 1042.94 554.652 1031.05 530.071C1033.77 531.256 1036.49 532.726 1039.22 534.405C1046.77 539.021 1049.79 542.482 1057.12 543.386C1058.12 543.504 1059.11 543.552 1060.11 543.552C1062.51 543.552 1064.9 543.267 1067.3 542.986C1069.7 542.705 1072.1 542.421 1074.54 542.421C1076.44 542.421 1078.35 542.593 1080.29 543.074C1080.74 543.186 1081.19 543.301 1081.63 543.423C1093.28 565.851 1103.33 589.25 1111.63 613.452C1104.9 611.894 1106.12 606.537 1098.31 604.414C1098.01 604.332 1097.71 604.251 1097.43 604.17C1089.69 601.948 1089.58 600.252 1086.56 593.456C1086.02 592.23 1085.64 591.122 1085.37 590.117C1084.09 585.322 1085.23 582.728 1082.66 580.154C1081.33 578.823 1080.15 578.339 1078.63 578.339C1078.42 578.339 1078.2 578.349 1077.97 578.366C1075.99 578.522 1073.4 579.335 1069.34 580.147C1066.46 580.723 1065.49 582.352 1065.48 584.536C1065.48 588.295 1068.35 593.693 1069.34 598.152C1069.87 600.53 1070.31 602.463 1070.54 604.278C1070.92 607.346 1070.71 610.082 1069.33 614.092C1069.1 614.742 1068.85 615.429 1068.56 616.154C1068.42 616.489 1068.3 616.797 1068.19 617.079C1067.51 618.762 1067.22 619.446 1067.13 619.446" fill="white" fill-opacity="0.25"/>
<path d="M1005.99 483.062V483.059C1009.9 482.006 1013.93 480.892 1017.65 479.994C1013.93 480.895 1009.9 482.006 1005.99 483.062" fill="#4CB7C3"/>
<path d="M1010.63 491.132C1009.1 488.423 1007.57 485.765 1005.99 483.062C1009.9 482.006 1013.93 480.895 1017.65 479.994C1020.61 479.283 1023.37 478.704 1025.72 478.396C1031.27 477.678 1034.85 475.03 1037.07 472.439C1033.31 482.581 1022.68 488.02 1010.63 491.132Z" fill="white" fill-opacity="0.25"/>
<path d="M960.458 398.073C960.485 397.978 960.512 397.88 960.539 397.781C960.539 397.778 960.539 397.775 960.539 397.771C960.539 397.775 960.539 397.775 960.539 397.775C960.512 397.876 960.485 397.975 960.458 398.073ZM960.78 397.04C960.837 396.881 960.902 396.725 960.976 396.566C960.905 396.725 960.841 396.881 960.78 397.04Z" fill="#4CB7C3"/>
<path d="M995.98 466.449C983.691 446.679 970.167 427.086 955.423 407.808C957.468 405.363 959.188 402.6 960.458 398.073C960.485 397.974 960.512 397.876 960.539 397.774C960.539 397.774 960.539 397.774 960.539 397.771C960.617 397.527 960.692 397.284 960.78 397.04C960.841 396.881 960.905 396.725 960.976 396.566C975.693 399.346 970.393 422.732 979.746 433.585C984.592 439.216 989.177 441.519 993.271 441.519C998.046 441.519 1002.16 438.39 1005.24 433.761C1007.98 436.781 1010.68 439.822 1013.36 442.911C1013.74 443.825 1014.13 444.702 1014.55 445.528C1018.45 453.354 1009.84 459.622 999.675 465.081C998.249 465.849 997.037 466.283 995.98 466.449" fill="white" fill-opacity="0.25"/>
<path d="M930.747 478.297C937.357 477.708 944.604 472.497 946.51 466.655C944.621 472.503 937.367 477.725 930.747 478.297Z" fill="#6BCCF4"/>
<path d="M926.24 1024.51C918.749 1024.51 911.977 1022.99 906.972 1019.65C911.98 1022.99 918.756 1024.51 926.25 1024.51C940.1 1024.51 956.409 1019.33 968.576 1010.9C968.897 1011.07 969.219 1011.24 969.544 1011.42C969.222 1011.24 968.901 1011.07 968.579 1010.91C956.419 1019.32 940.097 1024.51 926.24 1024.51V1024.51ZM906.924 1019.62C906.921 1019.62 906.918 1019.62 906.914 1019.61C906.918 1019.62 906.921 1019.62 906.924 1019.62Z" fill="#7BD2F5"/>
<path d="M192.719 389.042C187.389 386.451 183.353 383.532 180.061 380.83C183.356 383.529 187.393 386.448 192.723 389.038L192.719 389.042Z" fill="#2C376B"/>
<path d="M224.046 396.454C222.502 396.386 220.907 396.268 219.257 396.098C207.781 394.916 199.275 392.224 192.719 389.041L192.722 389.038C199.275 392.224 207.781 394.913 219.261 396.098C220.91 396.268 222.505 396.386 224.046 396.454" fill="#354181"/>
<path d="M227.564 396.535C226.423 396.535 225.251 396.512 224.046 396.454C225.251 396.508 226.426 396.535 227.567 396.535C228.593 396.535 229.596 396.515 230.574 396.474C229.596 396.515 228.593 396.535 227.564 396.535ZM230.585 396.474C230.618 396.474 230.652 396.471 230.69 396.471C230.656 396.471 230.618 396.474 230.585 396.474ZM257.536 390.027C260.811 388.733 263.388 387.761 265.494 387.761C266.151 387.761 266.764 387.856 267.336 388.063C266.764 387.856 266.151 387.761 265.497 387.761C263.388 387.761 260.811 388.733 257.536 390.027Z" fill="#3B4892"/>
<path d="M144.031 372.306C142.422 372.306 140.719 372.252 138.901 372.124C122.341 370.938 118.65 362.236 122.342 350.79H122.345C118.647 362.236 122.352 370.938 138.89 372.113C140.709 372.242 142.415 372.296 144.021 372.296C148.088 372.296 151.521 371.951 154.532 371.605C156.496 371.382 158.277 371.155 159.94 371.026C158.284 371.158 156.509 371.382 154.559 371.609C151.545 371.958 148.104 372.306 144.031 372.306" fill="#2C376B"/>
<path opacity="0.4" d="M105.434 781.267C105.434 1066.82 336.918 1298.3 622.468 1298.3C908.018 1298.3 1139.5 1066.82 1139.5 781.267C1139.5 495.717 908.018 264.237 622.468 264.237C336.918 264.237 105.434 495.717 105.434 781.267" fill="#232A8D"/>
<g filter="url(#filter1_d_110_130)">
<circle cx="773.535" cy="129.526" r="2.54703" fill="white"/>
</g>
<circle opacity="0.5" cx="773.535" cy="129.526" r="2.54703" fill="#F9B8C7"/>
<g filter="url(#filter2_d_110_130)">
<circle cx="531.756" cy="40.8805" r="2.54703" fill="white"/>
</g>
<circle opacity="0.5" cx="531.756" cy="40.8805" r="2.54703" fill="#F9B8C7"/>
<g filter="url(#filter3_d_110_130)">
<circle cx="786.408" cy="6.54703" r="2.54703" fill="white"/>
</g>
<circle opacity="0.5" cx="786.408" cy="6.54703" r="2.54703" fill="#F9B8C7"/>
<g filter="url(#filter4_d_110_130)">
<circle cx="877.025" cy="11.641" r="2.54703" fill="white"/>
</g>
<circle opacity="0.5" cx="877.025" cy="11.641" r="2.54703" fill="#F9B8C7"/>
<g filter="url(#filter5_d_110_130)">
<circle cx="988.012" cy="16.7353" r="2.54703" fill="white"/>
</g>
<circle opacity="0.5" cx="988.012" cy="16.7353" r="2.54703" fill="#F9B8C7"/>
<g filter="url(#filter6_d_110_130)">
<circle cx="749.907" cy="169.913" r="2.54703" fill="white"/>
</g>
<circle opacity="0.5" cx="749.907" cy="169.913" r="2.54703" fill="#F9B8C7"/>
<g filter="url(#filter7_d_110_130)">
<circle cx="869.647" cy="241.502" r="2.54703" fill="white"/>
</g>
<circle opacity="0.5" cx="869.647" cy="241.502" r="2.54703" fill="#F9B8C7"/>
<g filter="url(#filter8_d_110_130)">
<circle cx="920.263" cy="265.461" r="2.54703" fill="white"/>
</g>
<circle opacity="0.5" cx="920.263" cy="265.461" r="2.54703" fill="#F9B8C7"/>
<g filter="url(#filter9_d_110_130)">
<circle cx="597.291" cy="124.852" r="2.12685" fill="white"/>
</g>
<circle opacity="0.5" cx="597.291" cy="124.852" r="2.12685" fill="#F9B8C7"/>
<g filter="url(#filter10_d_110_130)">
<circle cx="954.863" cy="77.3056" r="2.12685" fill="white"/>
</g>
<circle opacity="0.5" cx="954.863" cy="77.3056" r="2.12685" fill="#F9B8C7"/>
<g filter="url(#filter11_d_110_130)">
<circle cx="472.468" cy="159.749" r="2.12685" fill="white"/>
</g>
<circle opacity="0.5" cx="472.468" cy="159.749" r="2.12685" fill="#F9B8C7"/>
<g filter="url(#filter12_d_110_130)">
<circle cx="103.307" cy="493.259" r="2.12685" fill="white"/>
</g>
<circle opacity="0.5" cx="103.307" cy="493.259" r="2.12685" fill="#F9B8C7"/>
<g filter="url(#filter13_d_110_130)">
<circle cx="143.826" cy="423.435" r="2.12685" fill="white"/>
</g>
<circle opacity="0.5" cx="143.826" cy="423.435" r="2.12685" fill="#F9B8C7"/>
<g filter="url(#filter14_d_110_130)">
<circle cx="71.5836" cy="869" r="2.12685" fill="white"/>
</g>
<circle opacity="0.5" cx="71.5836" cy="869" r="2.12685" fill="#F9B8C7"/>
<g filter="url(#filter15_d_110_130)">
<circle cx="243.564" cy="45.5543" r="2.12685" fill="white"/>
</g>
<circle opacity="0.5" cx="243.564" cy="45.5543" r="2.12685" fill="#F9B8C7"/>
<g filter="url(#filter16_d_110_130)">
<circle cx="455.675" cy="246.176" r="2.12685" fill="white"/>
</g>
<circle opacity="0.5" cx="455.675" cy="246.176" r="2.12685" fill="#F9B8C7"/>
<g filter="url(#filter17_d_110_130)">
<circle cx="690.365" cy="226.667" r="2.12685" fill="white"/>
</g>
<circle opacity="0.5" cx="690.365" cy="226.667" r="2.12685" fill="#F9B8C7"/>
<g filter="url(#filter18_d_110_130)">
<circle cx="182.584" cy="161.876" r="3.80821" fill="white"/>
</g>
<circle opacity="0.5" cx="182.584" cy="161.876" r="3.80821" fill="#F9B8C7"/>
<g filter="url(#filter19_d_110_130)">
<circle cx="201.941" cy="380.83" r="3.80821" fill="white"/>
</g>
<circle opacity="0.5" cx="201.941" cy="380.83" r="3.80821" fill="#F9B8C7"/>
<g filter="url(#filter20_d_110_130)">
<circle cx="109.242" cy="596.959" r="3.80821" fill="white"/>
</g>
<circle opacity="0.5" cx="109.242" cy="596.959" r="3.80821" fill="#F9B8C7"/>
<g filter="url(#filter21_d_110_130)">
<circle cx="287.763" cy="215.134" r="3.80821" fill="white"/>
</g>
<circle opacity="0.5" cx="287.763" cy="215.134" r="3.80821" fill="#F9B8C7"/>
<g filter="url(#filter22_d_110_130)">
<circle cx="144.295" cy="364.496" r="3.80821" fill="white"/>
</g>
<circle opacity="0.5" cx="144.295" cy="364.496" r="3.80821" fill="#F9B8C7"/>
<g filter="url(#filter23_d_110_130)">
<circle cx="329.49" cy="90.998" r="1.83202" fill="white"/>
</g>
<circle opacity="0.5" cx="329.49" cy="90.998" r="1.83202" fill="#F9B8C7"/>
<g filter="url(#filter24_d_110_130)">
<circle cx="973.658" cy="230.625" r="1.83202" fill="white"/>
</g>
<circle opacity="0.5" cx="973.658" cy="230.625" r="1.83202" fill="#F9B8C7"/>
<g filter="url(#filter25_d_110_130)">
<circle cx="37.832" cy="777.767" r="1.83202" fill="white"/>
</g>
<circle opacity="0.5" cx="37.832" cy="777.767" r="1.83202" fill="#F9B8C7"/>
<defs>
<filter id="filter0_d_110_130" x="80.4341" y="220.236" width="1084.07" height="1084.07" filterUnits="userSpaceOnUse" color-interpolation-filters="sRGB">
<feFlood flood-opacity="0" result="BackgroundImageFix"/>
<feColorMatrix in="SourceAlpha" type="matrix" values="0 0 0 0 0 0 0 0 0 0 0 0 0 0 0 0 0 0 127 0" result="hardAlpha"/>
<feOffset dy="-19"/>
<feGaussianBlur stdDeviation="12.5"/>
<feComposite in2="hardAlpha" operator="out"/>
<feColorMatrix type="matrix" values="0 0 0 0 0.137255 0 0 0 0 0.168627 0 0 0 0 0.596078 0 0 0 1 0"/>
<feBlend mode="normal" in2="BackgroundImageFix" result="effect1_dropShadow_110_130"/>
<feBlend mode="normal" in="SourceGraphic" in2="effect1_dropShadow_110_130" result="shape"/>
</filter>
<filter id="filter1_d_110_130" x="767.522" y="123.513" width="12.0256" height="12.0256" filterUnits="userSpaceOnUse" color-interpolation-filters="sRGB">
<feFlood flood-opacity="0" result="BackgroundImageFix"/>
<feColorMatrix in="SourceAlpha" type="matrix" values="0 0 0 0 0 0 0 0 0 0 0 0 0 0 0 0 0 0 127 0" result="hardAlpha"/>
<feOffset/>
<feGaussianBlur stdDeviation="1.73291"/>
<feComposite in2="hardAlpha" operator="out"/>
<feColorMatrix type="matrix" values="0 0 0 0 1 0 0 0 0 1 0 0 0 0 1 0 0 0 1 0"/>
<feBlend mode="normal" in2="BackgroundImageFix" result="effect1_dropShadow_110_130"/>
<feBlend mode="normal" in="SourceGraphic" in2="effect1_dropShadow_110_130" result="shape"/>
</filter>
<filter id="filter2_d_110_130" x="525.743" y="34.8677" width="12.0256" height="12.0256" filterUnits="userSpaceOnUse" color-interpolation-filters="sRGB">
<feFlood flood-opacity="0" result="BackgroundImageFix"/>
<feColorMatrix in="SourceAlpha" type="matrix" values="0 0 0 0 0 0 0 0 0 0 0 0 0 0 0 0 0 0 127 0" result="hardAlpha"/>
<feOffset/>
<feGaussianBlur stdDeviation="1.73291"/>
<feComposite in2="hardAlpha" operator="out"/>
<feColorMatrix type="matrix" values="0 0 0 0 1 0 0 0 0 1 0 0 0 0 1 0 0 0 1 0"/>
<feBlend mode="normal" in2="BackgroundImageFix" result="effect1_dropShadow_110_130"/>
<feBlend mode="normal" in="SourceGraphic" in2="effect1_dropShadow_110_130" result="shape"/>
</filter>
<filter id="filter3_d_110_130" x="780.395" y="0.534174" width="12.0256" height="12.0256" filterUnits="userSpaceOnUse" color-interpolation-filters="sRGB">
<feFlood flood-opacity="0" result="BackgroundImageFix"/>
<feColorMatrix in="SourceAlpha" type="matrix" values="0 0 0 0 0 0 0 0 0 0 0 0 0 0 0 0 0 0 127 0" result="hardAlpha"/>
<feOffset/>
<feGaussianBlur stdDeviation="1.73291"/>
<feComposite in2="hardAlpha" operator="out"/>
<feColorMatrix type="matrix" values="0 0 0 0 1 0 0 0 0 1 0 0 0 0 1 0 0 0 1 0"/>
<feBlend mode="normal" in2="BackgroundImageFix" result="effect1_dropShadow_110_130"/>
<feBlend mode="normal" in="SourceGraphic" in2="effect1_dropShadow_110_130" result="shape"/>
</filter>
<filter id="filter4_d_110_130" x="871.012" y="5.62817" width="12.0256" height="12.0256" filterUnits="userSpaceOnUse" color-interpolation-filters="sRGB">
<feFlood flood-opacity="0" result="BackgroundImageFix"/>
<feColorMatrix in="SourceAlpha" type="matrix" values="0 0 0 0 0 0 0 0 0 0 0 0 0 0 0 0 0 0 127 0" result="hardAlpha"/>
<feOffset/>
<feGaussianBlur stdDeviation="1.73291"/>
<feComposite in2="hardAlpha" operator="out"/>
<feColorMatrix type="matrix" values="0 0 0 0 1 0 0 0 0 1 0 0 0 0 1 0 0 0 1 0"/>
<feBlend mode="normal" in2="BackgroundImageFix" result="effect1_dropShadow_110_130"/>
<feBlend mode="normal" in="SourceGraphic" in2="effect1_dropShadow_110_130" result="shape"/>
</filter>
<filter id="filter5_d_110_130" x="982" y="10.7224" width="12.0256" height="12.0256" filterUnits="userSpaceOnUse" color-interpolation-filters="sRGB">
<feFlood flood-opacity="0" result="BackgroundImageFix"/>
<feColorMatrix in="SourceAlpha" type="matrix" values="0 0 0 0 0 0 0 0 0 0 0 0 0 0 0 0 0 0 127 0" result="hardAlpha"/>
<feOffset/>
<feGaussianBlur stdDeviation="1.73291"/>
<feComposite in2="hardAlpha" operator="out"/>
<feColorMatrix type="matrix" values="0 0 0 0 1 0 0 0 0 1 0 0 0 0 1 0 0 0 1 0"/>
<feBlend mode="normal" in2="BackgroundImageFix" result="effect1_dropShadow_110_130"/>
<feBlend mode="normal" in="SourceGraphic" in2="effect1_dropShadow_110_130" result="shape"/>
</filter>
<filter id="filter6_d_110_130" x="743.895" y="163.9" width="12.0256" height="12.0256" filterUnits="userSpaceOnUse" color-interpolation-filters="sRGB">
<feFlood flood-opacity="0" result="BackgroundImageFix"/>
<feColorMatrix in="SourceAlpha" type="matrix" values="0 0 0 0 0 0 0 0 0 0 0 0 0 0 0 0 0 0 127 0" result="hardAlpha"/>
<feOffset/>
<feGaussianBlur stdDeviation="1.73291"/>
<feComposite in2="hardAlpha" operator="out"/>
<feColorMatrix type="matrix" values="0 0 0 0 1 0 0 0 0 1 0 0 0 0 1 0 0 0 1 0"/>
<feBlend mode="normal" in2="BackgroundImageFix" result="effect1_dropShadow_110_130"/>
<feBlend mode="normal" in="SourceGraphic" in2="effect1_dropShadow_110_130" result="shape"/>
</filter>
<filter id="filter7_d_110_130" x="863.635" y="235.489" width="12.0256" height="12.0256" filterUnits="userSpaceOnUse" color-interpolation-filters="sRGB">
<feFlood flood-opacity="0" result="BackgroundImageFix"/>
<feColorMatrix in="SourceAlpha" type="matrix" values="0 0 0 0 0 0 0 0 0 0 0 0 0 0 0 0 0 0 127 0" result="hardAlpha"/>
<feOffset/>
<feGaussianBlur stdDeviation="1.73291"/>
<feComposite in2="hardAlpha" operator="out"/>
<feColorMatrix type="matrix" values="0 0 0 0 1 0 0 0 0 1 0 0 0 0 1 0 0 0 1 0"/>
<feBlend mode="normal" in2="BackgroundImageFix" result="effect1_dropShadow_110_130"/>
<feBlend mode="normal" in="SourceGraphic" in2="effect1_dropShadow_110_130" result="shape"/>
</filter>
<filter id="filter8_d_110_130" x="914.25" y="259.448" width="12.0256" height="12.0256" filterUnits="userSpaceOnUse" color-interpolation-filters="sRGB">
<feFlood flood-opacity="0" result="BackgroundImageFix"/>
<feColorMatrix in="SourceAlpha" type="matrix" values="0 0 0 0 0 0 0 0 0 0 0 0 0 0 0 0 0 0 127 0" result="hardAlpha"/>
<feOffset/>
<feGaussianBlur stdDeviation="1.73291"/>
<feComposite in2="hardAlpha" operator="out"/>
<feColorMatrix type="matrix" values="0 0 0 0 1 0 0 0 0 1 0 0 0 0 1 0 0 0 1 0"/>
<feBlend mode="normal" in2="BackgroundImageFix" result="effect1_dropShadow_110_130"/>
<feBlend mode="normal" in="SourceGraphic" in2="effect1_dropShadow_110_130" result="shape"/>
</filter>
<filter id="filter9_d_110_130" x="592.27" y="119.831" width="10.0418" height="10.0418" filterUnits="userSpaceOnUse" color-interpolation-filters="sRGB">
<feFlood flood-opacity="0" result="BackgroundImageFix"/>
<feColorMatrix in="SourceAlpha" type="matrix" values="0 0 0 0 0 0 0 0 0 0 0 0 0 0 0 0 0 0 127 0" result="hardAlpha"/>
<feOffset/>
<feGaussianBlur stdDeviation="1.44704"/>
<feComposite in2="hardAlpha" operator="out"/>
<feColorMatrix type="matrix" values="0 0 0 0 1 0 0 0 0 1 0 0 0 0 1 0 0 0 1 0"/>
<feBlend mode="normal" in2="BackgroundImageFix" result="effect1_dropShadow_110_130"/>
<feBlend mode="normal" in="SourceGraphic" in2="effect1_dropShadow_110_130" result="shape"/>
</filter>
<filter id="filter10_d_110_130" x="949.842" y="72.2846" width="10.0418" height="10.0418" filterUnits="userSpaceOnUse" color-interpolation-filters="sRGB">
<feFlood flood-opacity="0" result="BackgroundImageFix"/>
<feColorMatrix in="SourceAlpha" type="matrix" values="0 0 0 0 0 0 0 0 0 0 0 0 0 0 0 0 0 0 127 0" result="hardAlpha"/>
<feOffset/>
<feGaussianBlur stdDeviation="1.44704"/>
<feComposite in2="hardAlpha" operator="out"/>
<feColorMatrix type="matrix" values="0 0 0 0 1 0 0 0 0 1 0 0 0 0 1 0 0 0 1 0"/>
<feBlend mode="normal" in2="BackgroundImageFix" result="effect1_dropShadow_110_130"/>
<feBlend mode="normal" in="SourceGraphic" in2="effect1_dropShadow_110_130" result="shape"/>
</filter>
<filter id="filter11_d_110_130" x="467.447" y="154.728" width="10.0418" height="10.0418" filterUnits="userSpaceOnUse" color-interpolation-filters="sRGB">
<feFlood flood-opacity="0" result="BackgroundImageFix"/>
<feColorMatrix in="SourceAlpha" type="matrix" values="0 0 0 0 0 0 0 0 0 0 0 0 0 0 0 0 0 0 127 0" result="hardAlpha"/>
<feOffset/>
<feGaussianBlur stdDeviation="1.44704"/>
<feComposite in2="hardAlpha" operator="out"/>
<feColorMatrix type="matrix" values="0 0 0 0 1 0 0 0 0 1 0 0 0 0 1 0 0 0 1 0"/>
<feBlend mode="normal" in2="BackgroundImageFix" result="effect1_dropShadow_110_130"/>
<feBlend mode="normal" in="SourceGraphic" in2="effect1_dropShadow_110_130" result="shape"/>
</filter>
<filter id="filter12_d_110_130" x="98.2861" y="488.238" width="10.0418" height="10.0418" filterUnits="userSpaceOnUse" color-interpolation-filters="sRGB">
<feFlood flood-opacity="0" result="BackgroundImageFix"/>
<feColorMatrix in="SourceAlpha" type="matrix" values="0 0 0 0 0 0 0 0 0 0 0 0 0 0 0 0 0 0 127 0" result="hardAlpha"/>
<feOffset/>
<feGaussianBlur stdDeviation="1.44704"/>
<feComposite in2="hardAlpha" operator="out"/>
<feColorMatrix type="matrix" values="0 0 0 0 1 0 0 0 0 1 0 0 0 0 1 0 0 0 1 0"/>
<feBlend mode="normal" in2="BackgroundImageFix" result="effect1_dropShadow_110_130"/>
<feBlend mode="normal" in="SourceGraphic" in2="effect1_dropShadow_110_130" result="shape"/>
</filter>
<filter id="filter13_d_110_130" x="138.805" y="418.414" width="10.0418" height="10.0418" filterUnits="userSpaceOnUse" color-interpolation-filters="sRGB">
<feFlood flood-opacity="0" result="BackgroundImageFix"/>
<feColorMatrix in="SourceAlpha" type="matrix" values="0 0 0 0 0 0 0 0 0 0 0 0 0 0 0 0 0 0 127 0" result="hardAlpha"/>
<feOffset/>
<feGaussianBlur stdDeviation="1.44704"/>
<feComposite in2="hardAlpha" operator="out"/>
<feColorMatrix type="matrix" values="0 0 0 0 1 0 0 0 0 1 0 0 0 0 1 0 0 0 1 0"/>
<feBlend mode="normal" in2="BackgroundImageFix" result="effect1_dropShadow_110_130"/>
<feBlend mode="normal" in="SourceGraphic" in2="effect1_dropShadow_110_130" result="shape"/>
</filter>
<filter id="filter14_d_110_130" x="66.5627" y="863.979" width="10.0418" height="10.0418" filterUnits="userSpaceOnUse" color-interpolation-filters="sRGB">
<feFlood flood-opacity="0" result="BackgroundImageFix"/>
<feColorMatrix in="SourceAlpha" type="matrix" values="0 0 0 0 0 0 0 0 0 0 0 0 0 0 0 0 0 0 127 0" result="hardAlpha"/>
<feOffset/>
<feGaussianBlur stdDeviation="1.44704"/>
<feComposite in2="hardAlpha" operator="out"/>
<feColorMatrix type="matrix" values="0 0 0 0 1 0 0 0 0 1 0 0 0 0 1 0 0 0 1 0"/>
<feBlend mode="normal" in2="BackgroundImageFix" result="effect1_dropShadow_110_130"/>
<feBlend mode="normal" in="SourceGraphic" in2="effect1_dropShadow_110_130" result="shape"/>
</filter>
<filter id="filter15_d_110_130" x="238.543" y="40.5334" width="10.0418" height="10.0418" filterUnits="userSpaceOnUse" color-interpolation-filters="sRGB">
<feFlood flood-opacity="0" result="BackgroundImageFix"/>
<feColorMatrix in="SourceAlpha" type="matrix" values="0 0 0 0 0 0 0 0 0 0 0 0 0 0 0 0 0 0 127 0" result="hardAlpha"/>
<feOffset/>
<feGaussianBlur stdDeviation="1.44704"/>
<feComposite in2="hardAlpha" operator="out"/>
<feColorMatrix type="matrix" values="0 0 0 0 1 0 0 0 0 1 0 0 0 0 1 0 0 0 1 0"/>
<feBlend mode="normal" in2="BackgroundImageFix" result="effect1_dropShadow_110_130"/>
<feBlend mode="normal" in="SourceGraphic" in2="effect1_dropShadow_110_130" result="shape"/>
</filter>
<filter id="filter16_d_110_130" x="450.655" y="241.155" width="10.0418" height="10.0418" filterUnits="userSpaceOnUse" color-interpolation-filters="sRGB">
<feFlood flood-opacity="0" result="BackgroundImageFix"/>
<feColorMatrix in="SourceAlpha" type="matrix" values="0 0 0 0 0 0 0 0 0 0 0 0 0 0 0 0 0 0 127 0" result="hardAlpha"/>
<feOffset/>
<feGaussianBlur stdDeviation="1.44704"/>
<feComposite in2="hardAlpha" operator="out"/>
<feColorMatrix type="matrix" values="0 0 0 0 1 0 0 0 0 1 0 0 0 0 1 0 0 0 1 0"/>
<feBlend mode="normal" in2="BackgroundImageFix" result="effect1_dropShadow_110_130"/>
<feBlend mode="normal" in="SourceGraphic" in2="effect1_dropShadow_110_130" result="shape"/>
</filter>
<filter id="filter17_d_110_130" x="685.344" y="221.646" width="10.0418" height="10.0418" filterUnits="userSpaceOnUse" color-interpolation-filters="sRGB">
<feFlood flood-opacity="0" result="BackgroundImageFix"/>
<feColorMatrix in="SourceAlpha" type="matrix" values="0 0 0 0 0 0 0 0 0 0 0 0 0 0 0 0 0 0 127 0" result="hardAlpha"/>
<feOffset/>
<feGaussianBlur stdDeviation="1.44704"/>
<feComposite in2="hardAlpha" operator="out"/>
<feColorMatrix type="matrix" values="0 0 0 0 1 0 0 0 0 1 0 0 0 0 1 0 0 0 1 0"/>
<feBlend mode="normal" in2="BackgroundImageFix" result="effect1_dropShadow_110_130"/>
<feBlend mode="normal" in="SourceGraphic" in2="effect1_dropShadow_110_130" result="shape"/>
</filter>
<filter id="filter18_d_110_130" x="173.593" y="152.886" width="17.9804" height="17.9804" filterUnits="userSpaceOnUse" color-interpolation-filters="sRGB">
<feFlood flood-opacity="0" result="BackgroundImageFix"/>
<feColorMatrix in="SourceAlpha" type="matrix" values="0 0 0 0 0 0 0 0 0 0 0 0 0 0 0 0 0 0 127 0" result="hardAlpha"/>
<feOffset/>
<feGaussianBlur stdDeviation="2.59097"/>
<feComposite in2="hardAlpha" operator="out"/>
<feColorMatrix type="matrix" values="0 0 0 0 1 0 0 0 0 1 0 0 0 0 1 0 0 0 1 0"/>
<feBlend mode="normal" in2="BackgroundImageFix" result="effect1_dropShadow_110_130"/>
<feBlend mode="normal" in="SourceGraphic" in2="effect1_dropShadow_110_130" result="shape"/>
</filter>
<filter id="filter19_d_110_130" x="192.951" y="371.84" width="17.9804" height="17.9804" filterUnits="userSpaceOnUse" color-interpolation-filters="sRGB">
<feFlood flood-opacity="0" result="BackgroundImageFix"/>
<feColorMatrix in="SourceAlpha" type="matrix" values="0 0 0 0 0 0 0 0 0 0 0 0 0 0 0 0 0 0 127 0" result="hardAlpha"/>
<feOffset/>
<feGaussianBlur stdDeviation="2.59097"/>
<feComposite in2="hardAlpha" operator="out"/>
<feColorMatrix type="matrix" values="0 0 0 0 1 0 0 0 0 1 0 0 0 0 1 0 0 0 1 0"/>
<feBlend mode="normal" in2="BackgroundImageFix" result="effect1_dropShadow_110_130"/>
<feBlend mode="normal" in="SourceGraphic" in2="effect1_dropShadow_110_130" result="shape"/>
</filter>
<filter id="filter20_d_110_130" x="100.252" y="587.969" width="17.9804" height="17.9804" filterUnits="userSpaceOnUse" color-interpolation-filters="sRGB">
<feFlood flood-opacity="0" result="BackgroundImageFix"/>
<feColorMatrix in="SourceAlpha" type="matrix" values="0 0 0 0 0 0 0 0 0 0 0 0 0 0 0 0 0 0 127 0" result="hardAlpha"/>
<feOffset/>
<feGaussianBlur stdDeviation="2.59097"/>
<feComposite in2="hardAlpha" operator="out"/>
<feColorMatrix type="matrix" values="0 0 0 0 1 0 0 0 0 1 0 0 0 0 1 0 0 0 1 0"/>
<feBlend mode="normal" in2="BackgroundImageFix" result="effect1_dropShadow_110_130"/>
<feBlend mode="normal" in="SourceGraphic" in2="effect1_dropShadow_110_130" result="shape"/>
</filter>
<filter id="filter21_d_110_130" x="278.772" y="206.143" width="17.9804" height="17.9804" filterUnits="userSpaceOnUse" color-interpolation-filters="sRGB">
<feFlood flood-opacity="0" result="BackgroundImageFix"/>
<feColorMatrix in="SourceAlpha" type="matrix" values="0 0 0 0 0 0 0 0 0 0 0 0 0 0 0 0 0 0 127 0" result="hardAlpha"/>
<feOffset/>
<feGaussianBlur stdDeviation="2.59097"/>
<feComposite in2="hardAlpha" operator="out"/>
<feColorMatrix type="matrix" values="0 0 0 0 1 0 0 0 0 1 0 0 0 0 1 0 0 0 1 0"/>
<feBlend mode="normal" in2="BackgroundImageFix" result="effect1_dropShadow_110_130"/>
<feBlend mode="normal" in="SourceGraphic" in2="effect1_dropShadow_110_130" result="shape"/>
</filter>
<filter id="filter22_d_110_130" x="135.304" y="355.506" width="17.9804" height="17.9804" filterUnits="userSpaceOnUse" color-interpolation-filters="sRGB">
<feFlood flood-opacity="0" result="BackgroundImageFix"/>
<feColorMatrix in="SourceAlpha" type="matrix" values="0 0 0 0 0 0 0 0 0 0 0 0 0 0 0 0 0 0 127 0" result="hardAlpha"/>
<feOffset/>
<feGaussianBlur stdDeviation="2.59097"/>
<feComposite in2="hardAlpha" operator="out"/>
<feColorMatrix type="matrix" values="0 0 0 0 1 0 0 0 0 1 0 0 0 0 1 0 0 0 1 0"/>
<feBlend mode="normal" in2="BackgroundImageFix" result="effect1_dropShadow_110_130"/>
<feBlend mode="normal" in="SourceGraphic" in2="effect1_dropShadow_110_130" result="shape"/>
</filter>
<filter id="filter23_d_110_130" x="325.165" y="86.6731" width="8.64985" height="8.64985" filterUnits="userSpaceOnUse" color-interpolation-filters="sRGB">
<feFlood flood-opacity="0" result="BackgroundImageFix"/>
<feColorMatrix in="SourceAlpha" type="matrix" values="0 0 0 0 0 0 0 0 0 0 0 0 0 0 0 0 0 0 127 0" result="hardAlpha"/>
<feOffset/>
<feGaussianBlur stdDeviation="1.24645"/>
<feComposite in2="hardAlpha" operator="out"/>
<feColorMatrix type="matrix" values="0 0 0 0 1 0 0 0 0 1 0 0 0 0 1 0 0 0 1 0"/>
<feBlend mode="normal" in2="BackgroundImageFix" result="effect1_dropShadow_110_130"/>
<feBlend mode="normal" in="SourceGraphic" in2="effect1_dropShadow_110_130" result="shape"/>
</filter>
<filter id="filter24_d_110_130" x="969.333" y="226.301" width="8.64985" height="8.64985" filterUnits="userSpaceOnUse" color-interpolation-filters="sRGB">
<feFlood flood-opacity="0" result="BackgroundImageFix"/>
<feColorMatrix in="SourceAlpha" type="matrix" values="0 0 0 0 0 0 0 0 0 0 0 0 0 0 0 0 0 0 127 0" result="hardAlpha"/>
<feOffset/>
<feGaussianBlur stdDeviation="1.24645"/>
<feComposite in2="hardAlpha" operator="out"/>
<feColorMatrix type="matrix" values="0 0 0 0 1 0 0 0 0 1 0 0 0 0 1 0 0 0 1 0"/>
<feBlend mode="normal" in2="BackgroundImageFix" result="effect1_dropShadow_110_130"/>
<feBlend mode="normal" in="SourceGraphic" in2="effect1_dropShadow_110_130" result="shape"/>
</filter>
<filter id="filter25_d_110_130" x="33.5071" y="773.442" width="8.64985" height="8.64985" filterUnits="userSpaceOnUse" color-interpolation-filters="sRGB">
<feFlood flood-opacity="0" result="BackgroundImageFix"/>
<feColorMatrix in="SourceAlpha" type="matrix" values="0 0 0 0 0 0 0 0 0 0 0 0 0 0 0 0 0 0 127 0" result="hardAlpha"/>
<feOffset/>
<feGaussianBlur stdDeviation="1.24645"/>
<feComposite in2="hardAlpha" operator="out"/>
<feColorMatrix type="matrix" values="0 0 0 0 1 0 0 0 0 1 0 0 0 0 1 0 0 0 1 0"/>
<feBlend mode="normal" in2="BackgroundImageFix" result="effect1_dropShadow_110_130"/>
<feBlend mode="normal" in="SourceGraphic" in2="effect1_dropShadow_110_130" result="shape"/>
</filter>
<radialGradient id="paint0_radial_110_130" cx="0" cy="0" r="1" gradientUnits="userSpaceOnUse" gradientTransform="translate(622.468 1298.3) rotate(-90) scale(1034.07 1034.07)">
<stop stop-color="#2B147A"/>
<stop offset="0.270833" stop-color="#28146F"/>
<stop offset="0.755208" stop-color="#5126EE"/>
<stop offset="0.885417" stop-color="#592BFF"/>
<stop offset="0.991925" stop-color="#592BFF"/>
</radialGradient>
</defs>
</svg>
